<?xml version="1.0" standalone="no"?>
<!DOCTYPE svg PUBLIC "-//W3C//DTD SVG 20010904//EN"
 "http://www.w3.org/TR/2001/REC-SVG-20010904/DTD/svg10.dtd">
<svg version="1.0" xmlns="http://www.w3.org/2000/svg"
 width="640.000000pt" height="1280.000000pt" viewBox="0 0 640.000000 1280.000000"
 preserveAspectRatio="xMidYMid meet">
<metadata>
Created by potrace 1.15, written by Peter Selinger 2001-2017
</metadata>
<g transform="translate(0.000000,1280.000000) scale(0.100000,-0.100000)"
fill="#137752" stroke="none">
<path d="M2781 12790 c-60 -13 -166 -64 -226 -109 -27 -21 -71 -50 -97 -64
-46 -27 -113 -102 -181 -207 -20 -30 -47 -69 -61 -86 -63 -77 -106 -210 -106
-330 0 -149 47 -245 155 -313 63 -40 64 -42 76 -101 12 -63 18 -70 40 -44 10
12 24 14 58 10 96 -12 93 -13 114 22 18 31 19 35 3 50 -13 13 -34 17 -96 16
l-80 -1 0 38 c0 20 3 44 6 53 10 26 77 19 165 -16 91 -36 111 -31 84 21 -15
30 -86 84 -127 97 -27 8 -22 33 9 45 46 17 213 39 303 39 59 0 113 -7 175 -24
50 -14 119 -30 155 -37 36 -7 74 -20 85 -31 11 -10 41 -36 66 -58 26 -22 52
-54 59 -71 8 -18 18 -28 26 -25 19 7 31 -20 40 -84 5 -39 4 -51 -5 -46 -6 4
-11 15 -11 25 0 9 -7 26 -15 37 -14 18 -14 18 -15 1 0 -30 -23 -13 -33 24 -8
33 -9 33 -24 14 -8 -11 -21 -33 -29 -50 -8 -16 -19 -37 -24 -45 -5 -8 -19 -40
-30 -72 -12 -31 -36 -76 -55 -100 -19 -23 -35 -48 -35 -54 0 -6 -11 -21 -25
-34 -14 -13 -30 -40 -35 -59 -6 -20 -24 -52 -40 -71 -28 -32 -30 -33 -30 -11
0 22 -3 23 -37 17 -121 -21 -119 -21 -130 11 -6 16 -29 50 -52 76 l-41 48 21
29 c27 35 28 79 3 97 -17 12 -20 11 -27 -16 -5 -22 -16 -32 -45 -42 -20 -7
-52 -28 -69 -47 -32 -35 -33 -35 -53 -17 -11 10 -25 33 -32 52 -17 47 -33 35
-33 -25 0 -50 -2 -52 -46 -81 -46 -28 -79 -84 -79 -131 0 -10 -4 -21 -9 -24
-23 -15 -28 158 -6 214 53 137 52 130 31 146 -37 26 -120 -10 -165 -73 -35
-49 -69 -71 -76 -51 -11 30 -45 254 -45 298 0 69 -28 217 -50 267 -10 24 -34
58 -52 77 -18 18 -41 45 -51 59 -20 31 -48 35 -72 11 -10 -10 -24 -14 -40 -10
-32 8 -58 -21 -80 -88 -9 -28 -32 -71 -50 -96 -54 -75 -77 -164 -95 -370 -6
-69 -17 -162 -25 -207 -8 -45 -22 -141 -31 -214 -22 -183 -38 -215 -152 -313
-85 -72 -200 -193 -239 -252 -9 -15 -51 -42 -98 -65 -93 -44 -135 -85 -185
-178 -23 -42 -48 -72 -81 -96 -73 -52 -173 -184 -234 -310 -99 -202 -133 -372
-101 -510 9 -38 21 -97 26 -130 25 -152 94 -311 166 -382 l44 -42 0 -223 c0
-314 26 -520 74 -593 27 -41 61 -32 182 47 237 157 447 418 530 656 21 62 23
64 23 31 1 -47 -24 -190 -49 -282 -11 -39 -26 -115 -34 -167 -21 -132 -64
-537 -75 -702 -5 -75 -12 -141 -15 -146 -3 -5 -10 -90 -16 -188 -5 -98 -17
-222 -25 -274 -63 -405 -155 -1465 -200 -2315 -21 -392 -68 -933 -140 -1610
-41 -391 -54 -545 -80 -990 -14 -236 -30 -481 -35 -544 l-10 -114 27 -40 c36
-52 101 -108 200 -174 88 -58 119 -93 129 -142 6 -27 2 -33 -25 -48 -17 -10
-31 -21 -31 -24 0 -11 42 -19 98 -19 28 0 52 -4 52 -10 0 -13 -34 -30 -62 -30
-13 0 -30 -4 -38 -10 -12 -8 -12 -11 3 -28 9 -10 17 -28 17 -40 0 -20 5 -22
49 -22 80 0 107 -20 55 -40 -46 -18 -22 -35 56 -40 47 -3 75 -10 78 -18 9 -27
35 -42 75 -42 31 0 45 -5 55 -20 7 -11 23 -20 36 -20 14 0 37 -5 51 -10 33
-12 30 -29 -18 -135 -45 -99 -43 -147 9 -210 86 -105 109 -125 147 -125 44 0
133 20 261 60 54 16 106 30 115 30 22 0 177 75 216 104 17 13 49 26 71 29 58
9 150 53 129 61 -9 3 -25 6 -36 6 -10 0 -19 4 -19 9 0 9 37 16 155 27 86 8
126 21 105 34 -21 13 -6 17 130 34 63 8 135 18 159 22 l44 7 -6 -41 c-6 -46
-52 -152 -98 -223 -34 -53 -47 -126 -30 -167 32 -76 176 -93 263 -30 31 21 48
17 48 -12 0 -27 47 -60 85 -60 17 0 51 6 76 14 24 8 57 17 73 21 15 3 51 27
80 54 28 26 83 73 121 103 39 31 88 74 110 97 21 23 44 41 50 41 6 0 28 16 48
35 20 19 44 35 52 35 8 0 24 14 37 30 15 21 34 32 61 37 21 3 41 11 43 18 3 7
30 34 60 60 44 37 68 50 112 59 51 10 57 14 57 36 0 22 5 25 40 27 49 3 183
22 209 30 18 5 18 7 -5 24 -13 9 -21 21 -17 24 3 4 40 9 82 12 82 6 107 19 57
29 -49 10 -36 21 32 27 34 3 70 9 80 12 28 11 19 25 -15 25 -18 0 -39 4 -47 9
-28 18 27 31 133 31 105 0 163 11 151 30 -3 5 -36 10 -73 10 -80 0 -112 14
-55 23 21 4 72 7 113 8 41 0 84 4 94 8 18 7 18 8 -5 14 -13 4 -43 7 -66 7 -23
0 -44 4 -47 9 -8 13 30 21 109 21 89 1 163 13 178 30 10 10 -4 11 -73 7 -152
-10 -133 26 28 53 60 10 71 14 61 26 -9 11 -6 16 16 24 14 5 29 10 32 10 20 0
113 33 113 41 0 5 -64 9 -149 9 -89 0 -152 4 -156 10 -3 5 1 10 10 10 17 0
125 104 125 120 0 5 -21 -2 -47 -16 -54 -28 -116 -30 -121 -3 -5 25 48 39 147
39 83 0 135 12 101 24 -8 3 -35 9 -59 13 l-45 8 81 37 c82 38 145 52 291 64
45 3 82 10 82 14 0 13 -143 23 -222 15 -60 -6 -82 -13 -124 -41 -59 -40 -165
-78 -246 -88 -32 -4 -58 -12 -58 -17 0 -5 7 -9 15 -9 24 0 17 -24 -15 -55
l-30 -29 -2 100 c-2 54 -1 136 0 181 2 45 -1 149 -7 233 -13 184 -95 923 -115
1037 -18 102 -33 234 -46 428 -67 956 -200 1896 -411 2903 -38 182 -76 383
-84 445 -8 61 -21 159 -29 217 -18 130 -33 366 -46 745 -6 160 -20 444 -30
632 -11 187 -20 388 -20 445 l0 104 108 33 c175 53 236 87 352 198 56 53 120
124 143 157 22 34 58 78 80 99 44 44 109 172 132 262 24 94 29 227 11 324 -27
151 -100 261 -201 306 -34 15 -67 42 -99 79 -43 51 -84 84 -205 166 -20 13
-89 51 -154 85 -111 56 -120 62 -132 100 -21 61 -121 150 -222 196 -68 32 -84
44 -89 66 -4 15 -2 102 4 193 15 207 16 587 1 665 -14 75 -35 117 -57 113 -23
-4 -42 -46 -42 -92 0 -58 -14 -35 -45 74 -14 52 -32 103 -38 115 -6 11 -12 63
-12 115 -2 119 -24 183 -102 299 -75 109 -220 231 -276 231 -8 0 -62 31 -120
69 -146 94 -304 152 -432 157 -49 2 -110 -1 -134 -6z m190 -53 c-15 -19 -4
-27 38 -27 92 -1 228 -50 256 -94 16 -24 99 -66 130 -66 28 0 115 -50 160 -91
55 -50 97 -116 126 -194 26 -73 44 -95 78 -95 25 -1 25 -1 7 -15 -36 -27 -53
-18 -83 43 -32 64 -110 172 -124 172 -22 0 -3 -44 46 -105 44 -54 60 -89 75
-160 7 -33 21 -75 32 -94 10 -18 16 -36 13 -40 -4 -3 -35 -6 -70 -6 -55 0 -69
5 -107 31 -23 17 -80 50 -125 72 -45 23 -84 46 -88 52 -9 15 -68 13 -63 -2 2
-7 44 -33 93 -58 132 -66 225 -129 225 -151 0 -4 -11 -11 -25 -16 l-26 -8 26
-35 c14 -18 25 -42 25 -52 0 -17 -3 -16 -37 6 -20 14 -39 24 -41 21 -3 -2 3
-20 12 -40 10 -20 16 -45 14 -56 -2 -17 -13 -9 -56 45 -29 37 -76 82 -105 100
-94 61 -137 58 -49 -4 64 -45 111 -90 128 -122 24 -46 16 -52 -24 -16 -83 75
-280 188 -328 188 -20 0 -24 4 -19 19 8 26 -17 31 -175 31 -165 0 -313 -21
-390 -56 -91 -41 -103 -27 -24 28 58 39 217 106 347 145 9 3 17 9 17 13 0 7
-92 -10 -160 -30 -19 -5 -48 -10 -65 -10 l-30 1 25 14 c41 24 209 73 295 87
44 6 120 12 169 13 62 0 91 4 93 13 4 9 -41 12 -199 12 -187 1 -201 2 -183 17
27 21 175 91 255 119 l65 24 -44 0 c-167 1 -348 -110 -593 -362 -60 -61 -108
-104 -108 -96 0 26 49 185 79 254 28 65 28 96 1 79 -16 -10 -85 -158 -96 -205
-8 -34 -9 -32 -14 25 l-5 60 -20 -35 c-15 -28 -20 -59 -23 -152 -2 -65 -8
-118 -12 -118 -4 0 -11 29 -15 65 -8 75 -19 89 -34 42 -9 -25 -8 -46 4 -90 18
-68 18 -77 5 -77 -22 0 -62 60 -81 123 -30 97 -24 221 13 298 38 76 127 180
223 257 l80 65 -40 -6 -40 -6 57 53 c62 57 224 146 298 164 25 6 70 16 100 22
30 6 62 15 70 20 8 5 23 10 34 10 14 0 16 -3 7 -13z m779 -662 c0 -8 -4 -15
-10 -15 -5 0 -10 7 -10 15 0 8 5 15 10 15 6 0 10 -7 10 -15z m47 -7 c-3 -8 -6
-5 -6 6 -1 11 2 17 5 13 3 -3 4 -12 1 -19z m-1836 -90 c15 -27 38 -449 28
-502 -4 -22 40 -51 54 -37 5 5 3 45 -4 90 -9 57 -9 87 -2 103 8 18 7 26 -3 36
-16 15 -20 207 -5 231 25 39 46 -75 70 -379 l17 -225 -54 -58 c-30 -32 -52
-61 -49 -64 3 -3 38 7 78 23 77 30 138 81 183 152 30 47 69 77 91 68 18 -7 11
-27 -36 -108 -19 -31 -54 -93 -78 -138 -25 -44 -71 -110 -103 -145 -52 -57
-68 -67 -125 -85 -67 -21 -93 -35 -93 -51 0 -5 7 -9 15 -9 26 0 16 -16 -20
-33 -42 -20 -44 -34 -9 -47 33 -13 29 -29 -32 -159 -47 -100 -52 -121 -30
-121 19 0 31 -19 20 -30 -17 -17 -91 12 -147 56 -70 55 -144 147 -157 196 -8
29 -7 46 4 73 17 39 30 43 64 19 31 -22 37 -13 23 40 -16 64 -14 264 4 349 8
40 19 151 25 247 9 172 27 281 49 303 14 14 14 -70 1 -243 -10 -131 -8 -160
15 -160 20 0 23 21 35 207 10 179 36 373 51 388 20 20 29 -22 29 -135 0 -131
-10 -185 -37 -205 -17 -14 -17 -14 3 -15 27 0 34 -17 35 -88 1 -31 4 -68 8
-82 11 -36 20 56 31 322 5 120 12 222 15 228 10 16 23 12 36 -12z m1724 -108
c26 -51 62 -182 67 -245 3 -36 0 -40 -21 -43 -15 -3 -30 3 -38 14 -16 22 -17
116 -1 132 8 8 5 14 -14 21 -16 6 -28 22 -35 48 -43 144 -17 189 42 73z m154
-16 c12 -30 21 -66 21 -80 0 -27 -25 -43 -41 -27 -14 14 -34 136 -26 157 10
26 23 12 46 -50z m178 -255 c14 -334 -42 -703 -127 -831 -17 -25 -48 -100 -70
-167 -49 -151 -116 -299 -130 -285 -6 6 -20 44 -31 85 -24 84 -45 130 -65 142
-25 14 -15 27 26 33 49 8 51 20 5 40 -20 8 -76 51 -125 95 l-90 80 -55 172
-55 172 15 118 c21 163 37 187 79 115 15 -25 18 -44 13 -97 -3 -36 -8 -73 -12
-82 -4 -10 7 -31 29 -57 19 -23 36 -47 39 -54 3 -10 7 -10 21 1 9 8 18 12 19
10 1 -2 12 -18 25 -36 12 -18 22 -38 22 -46 0 -20 21 -37 48 -37 22 0 23 3 17
43 -3 23 -18 73 -32 110 -26 66 -26 71 -14 140 8 40 16 109 20 154 6 86 18
110 47 99 14 -6 16 -16 11 -74 -3 -37 -9 -75 -12 -84 -6 -15 -1 -18 29 -18
l36 0 -2 98 -3 97 27 3 c22 3 28 -2 36 -30 6 -18 13 -53 16 -77 19 -130 70
-102 83 45 5 67 4 78 -15 104 -26 34 -28 60 -7 100 37 72 56 20 64 -174 6
-156 11 -186 32 -186 19 0 30 58 40 205 5 82 12 170 15 194 10 81 24 27 31
-120z m-391 46 c21 -51 19 -95 -5 -95 -10 0 -22 7 -25 16 -12 31 -4 114 11
114 2 0 11 -16 19 -35z m-142 -47 c9 -34 7 -78 -3 -78 -9 0 -21 47 -21 81 0
26 16 24 24 -3z m-84 -108 c16 0 12 -17 -6 -24 -27 -10 -54 12 -54 44 l0 29
25 -24 c13 -14 29 -25 35 -25z m150 -28 c0 -39 -41 -247 -52 -259 -7 -9 -15
-10 -29 -2 -27 14 -24 57 11 131 16 34 30 77 30 94 0 29 15 54 32 54 4 0 8 -8
8 -18z m-89 -85 c-8 -8 -11 -5 -11 9 0 27 14 41 18 19 2 -9 -1 -22 -7 -28z
m-1132 -272 c-6 -39 -9 -115 -7 -169 l3 -99 -30 -19 c-16 -10 -56 -28 -87 -39
-118 -44 -90 -74 29 -32 92 31 91 32 117 -89 10 -46 31 -106 47 -134 16 -28
29 -60 29 -69 0 -10 8 -27 17 -37 20 -22 17 -39 -41 -288 -38 -163 -88 -508
-131 -895 -14 -126 -41 -331 -61 -455 -19 -124 -52 -378 -74 -565 -22 -187
-47 -402 -56 -478 -10 -90 -12 -147 -7 -165 6 -16 6 -222 2 -502 -4 -261 -8
-758 -8 -1105 -1 -652 -8 -945 -23 -945 -4 0 -8 65 -8 145 0 90 -4 145 -10
145 -5 0 -10 -8 -10 -17 0 -10 -5 -115 -11 -233 -6 -119 -12 -755 -14 -1425
-2 -715 -8 -1277 -14 -1375 -6 -91 -18 -453 -26 -805 -8 -352 -18 -648 -21
-657 -16 -52 -243 -20 -389 55 -67 34 -195 139 -277 225 l-66 70 -8 79 c-15
163 11 793 57 1358 21 267 35 735 20 676 -5 -19 -12 -79 -16 -135 -3 -55 -10
-123 -15 -151 -19 -97 -69 -622 -80 -830 -6 -115 -13 -218 -16 -227 -6 -19
-22 -235 -31 -398 -2 -52 -8 -99 -13 -105 -5 -6 -5 -27 0 -49 8 -36 2 -146 -8
-146 -10 0 -128 90 -154 117 l-28 29 15 260 c29 495 61 885 95 1169 45 365
123 1356 145 1835 34 728 70 1229 95 1330 5 19 16 110 25 201 25 278 70 563
105 663 19 57 25 93 55 351 22 181 25 197 41 191 19 -7 21 9 35 214 6 102 15
199 19 215 l8 30 1 -27 c1 -16 5 -28 10 -28 10 0 21 82 21 158 0 53 6 62 28
40 9 -9 12 17 12 120 0 132 13 176 25 85 9 -72 15 -93 24 -93 11 0 21 101 21
206 0 88 9 106 25 52 20 -67 30 -28 29 115 l-1 142 22 -48 c16 -33 25 -79 30
-150 7 -83 9 -95 16 -67 13 63 41 403 38 480 -2 44 2 84 9 97 7 12 17 66 23
121 9 84 8 105 -5 137 -24 56 -19 203 5 164 4 -7 5 -41 2 -74 -4 -48 -2 -63
11 -74 12 -10 16 -32 17 -80 1 -74 11 -122 22 -104 9 14 27 180 27 251 0 40
-4 52 -15 52 -19 0 -19 3 6 216 22 191 34 254 49 254 12 0 14 19 -10 -150 -22
-157 -25 -230 -11 -230 13 0 18 30 101 535 38 237 70 452 70 479 0 107 -24 20
-71 -259 -26 -158 -50 -293 -53 -301 -7 -18 -26 -18 -26 0 0 8 -5 27 -11 43
-10 26 -12 27 -23 11 -21 -29 -26 -21 -26 36 0 45 4 56 24 69 13 9 28 33 34
57 9 38 9 40 -9 35 -27 -9 -32 13 -21 84 10 72 1 97 -22 55 l-15 -29 -1 37 c0
41 -14 58 -25 30 -3 -9 -11 -78 -17 -152 -5 -74 -11 -148 -12 -165 -2 -16 -7
-41 -13 -55 -6 -14 -16 -70 -22 -125 -28 -228 -87 -563 -102 -579 -6 -6 -9 -6
-9 1 0 15 47 337 64 443 8 47 18 123 21 170 12 153 -11 75 -55 -180 -23 -135
-44 -247 -46 -249 -14 -15 8 182 47 419 11 69 24 185 29 257 l8 132 46 53 c25
29 53 67 61 85 19 40 35 122 35 182 0 75 7 86 86 136 44 28 71 52 66 57 -14
14 -59 -1 -113 -38 -27 -19 -49 -32 -49 -30 0 2 16 37 35 77 19 41 35 79 35
85 0 6 52 67 116 135 63 68 136 154 161 192 26 37 50 64 54 60 5 -5 4 -40 -2
-78z m511 -65 c0 -5 -2 -10 -4 -10 -3 0 -8 5 -11 10 -3 6 -1 10 4 10 6 0 11
-4 11 -10z m451 -124 c-12 -65 -35 -88 -25 -26 7 46 22 85 30 78 2 -3 0 -26
-5 -52z m49 -49 c0 -20 -45 -147 -65 -188 -10 -19 -29 -49 -43 -67 -31 -41
-23 -51 18 -22 30 21 32 21 28 4 -2 -10 -23 -32 -48 -49 -25 -16 -58 -42 -74
-58 -32 -30 -86 -49 -100 -36 -11 10 -14 8 47 43 30 17 45 32 40 37 -6 6 5 25
28 50 43 47 113 176 135 249 14 46 34 68 34 37z m759 -108 c17 -6 31 -15 31
-19 0 -9 -108 -120 -116 -120 -6 0 -5 83 2 119 7 35 27 39 83 20z m-679 -43
c0 -7 -12 -35 -26 -62 -15 -27 -30 -62 -33 -79 -6 -28 -46 -59 -62 -49 -5 2 5
24 20 47 16 23 36 65 46 92 10 28 23 56 28 62 11 15 27 8 27 -11z m-1905 -203
c8 -35 35 -242 35 -275 l0 -29 -70 48 c-38 26 -72 56 -75 65 -7 18 29 250 47
308 6 19 18 46 27 60 15 23 16 21 23 -64 3 -49 9 -100 13 -113z m2670 154
c-16 -12 -56 -46 -89 -74 -59 -53 -86 -65 -86 -39 0 18 111 119 153 140 46 22
62 2 22 -27z m-225 -126 l0 -139 -41 -7 c-53 -9 -59 -1 -25 34 16 17 23 30 16
33 -8 2 -3 36 17 111 15 59 29 107 31 107 1 0 2 -63 2 -139z m-2377 76 c53
-82 125 -136 241 -182 l39 -15 -6 -52 c-7 -59 -33 -101 -66 -106 -31 -5 -109
37 -141 76 -30 37 -71 134 -95 227 -15 58 -19 105 -10 105 2 0 20 -24 38 -53z
m2683 15 c-3 -5 -34 -23 -68 -40 -35 -17 -89 -54 -120 -82 -85 -76 -71 -44 17
38 78 73 153 118 168 103 5 -5 7 -13 3 -19z m-774 -9 c18 -16 25 -43 10 -43
-4 0 -14 6 -21 13 -12 12 -26 1 -51 -43 -5 -8 -11 -12 -15 -8 -10 10 38 98 53
98 3 0 14 -7 24 -17z m-2102 -45 c0 -28 -11 -99 -25 -157 -21 -87 -39 -129
-98 -235 -68 -122 -97 -159 -97 -122 0 9 16 41 36 71 43 68 96 184 91 199 -2
6 -27 -25 -55 -69 -83 -130 -81 -128 -83 -75 -1 25 -1 76 0 114 3 65 7 75 57
152 52 78 142 174 164 174 5 0 10 -23 10 -52z m2455 -89 c-46 -145 -85 -315
-105 -454 -11 -77 -20 -146 -20 -152 0 -7 -4 -13 -10 -13 -12 0 -12 101 0 239
8 85 20 134 65 266 30 88 55 168 55 177 0 18 20 30 32 19 4 -3 -3 -41 -17 -82z
m-285 46 c0 -8 -11 -27 -25 -42 -20 -23 -24 -25 -25 -10 0 26 29 79 40 72 6
-4 10 -12 10 -20z m728 -12 c3 -30 -8 -44 -130 -165 l-133 -133 -3 80 c-4 106
0 119 52 154 64 44 178 102 196 99 9 -2 16 -16 18 -35z m-1756 -35 c-7 -7 -12
-8 -12 -2 0 14 12 26 19 19 2 -3 -1 -11 -7 -17z m923 -9 c-10 -15 -25 -10 -19
6 4 8 10 12 15 9 5 -3 7 -10 4 -15z m-94 -17 c-19 -36 -113 -114 -167 -139
-59 -27 -152 -44 -124 -23 8 6 47 26 85 45 39 19 97 56 130 84 63 52 93 66 76
33z m270 -95 c24 -63 32 -96 31 -142 -1 -33 -2 -170 -2 -305 0 -368 -21 -594
-91 -975 -86 -469 -109 -610 -109 -675 0 -99 24 -99 155 0 36 27 69 50 72 50
3 0 2 -156 -1 -347 -3 -203 -2 -338 3 -323 5 14 9 61 10 105 1 44 5 96 11 114
5 19 14 114 20 210 12 212 18 263 31 256 5 -4 9 -77 9 -165 0 -131 3 -159 15
-164 18 -7 20 -84 4 -261 -10 -126 -4 -244 13 -227 5 5 14 81 19 168 6 87 13
184 16 214 l6 55 10 -40 c5 -24 7 -289 3 -674 -3 -348 -3 -631 0 -628 9 8 31
247 39 407 8 153 17 199 29 136 12 -63 36 -39 36 36 0 35 -3 40 -19 35 -14 -3
-21 2 -25 17 -10 36 -7 184 4 191 6 4 10 -19 10 -62 0 -37 4 -75 10 -83 10
-16 11 -15 29 15 10 16 11 -45 6 -290 -3 -170 -8 -346 -12 -391 -5 -77 -7 -81
-29 -76 -22 4 -22 3 -9 -36 12 -33 12 -74 0 -268 -25 -409 -41 -803 -31 -793
4 4 44 431 66 709 6 74 17 198 25 275 8 77 17 237 20 355 6 220 21 473 31 523
4 21 10 26 23 22 16 -5 19 6 24 107 4 62 7 151 8 198 0 47 4 94 9 105 5 11 9
-250 10 -615 2 -614 9 -788 23 -620 3 41 8 167 11 280 5 204 10 245 27 234 15
-9 10 43 -6 56 -8 7 -15 25 -15 40 0 15 7 33 15 40 11 9 15 36 16 104 1 50 4
120 8 156 5 53 8 33 14 -115 13 -308 26 -1012 27 -1425 2 -497 1 -530 -9 -505
-5 11 -14 330 -21 708 -7 379 -15 712 -19 740 -10 79 -21 -426 -21 -987 0
-320 7 -659 20 -971 11 -264 26 -667 35 -895 26 -725 34 -930 41 -1125 6 -157
9 -182 17 -145 9 44 -2 753 -23 1525 -12 410 -11 1078 1 1015 4 -25 17 -175
29 -335 11 -159 25 -342 30 -405 9 -113 60 -890 81 -1245 12 -205 32 -299 24
-115 -18 429 -26 695 -33 1052 -5 300 -10 410 -19 419 -10 10 -10 16 -1 27 8
9 12 56 11 140 -2 164 11 123 26 -80 6 -84 18 -175 27 -203 9 -29 31 -238 54
-505 61 -708 84 -1111 100 -1725 6 -220 15 -521 20 -670 15 -390 13 -452 -10
-502 -21 -48 -6 -39 -270 -153 -159 -69 -196 -82 -415 -149 -137 -41 -176 -45
-265 -26 -41 9 -142 19 -225 22 l-150 6 1 1491 c0 960 5 1603 12 1806 7 173
17 918 22 1655 6 737 14 1446 20 1575 14 343 20 637 30 1455 6 402 14 782 20
846 31 369 42 474 50 488 6 11 10 -10 10 -64 0 -55 3 -75 10 -65 5 8 10 33 10
55 0 52 30 110 75 147 45 38 49 66 5 43 -16 -8 -40 -15 -54 -15 -16 0 -27 -7
-31 -20 -6 -20 -35 -29 -35 -10 0 28 25 60 47 60 27 0 123 89 123 115 0 27
-27 16 -49 -20 -11 -19 -25 -35 -31 -35 -18 0 -11 36 15 71 13 19 32 49 42 66
22 43 34 32 74 -70z m881 20 c37 -28 67 -74 155 -243 l75 -144 -41 0 c-23 0
-41 -4 -41 -8 0 -4 9 -35 21 -67 45 -128 59 -205 58 -319 0 -61 -4 -120 -9
-131 -5 -13 -9 25 -9 103 -1 121 -15 212 -32 212 -5 0 -9 -41 -9 -91 0 -113
-19 -118 -36 -8 -7 41 -21 101 -32 134 -11 33 -30 107 -42 165 -31 147 -48
207 -80 270 -31 62 -61 155 -53 164 6 6 36 -8 75 -37z m-1139 9 c7 -17 -2 -56
-13 -56 -10 0 -22 48 -15 60 9 14 22 12 28 -4z m-645 -99 c-5 -65 -22 -160
-47 -257 -22 -85 -47 -207 -55 -270 -28 -208 -55 -462 -66 -620 -6 -85 -13
-161 -15 -168 -3 -8 -16 -12 -32 -10 -39 4 -43 37 -32 252 19 358 56 663 104
856 13 52 26 118 30 145 6 45 5 48 -8 32 -32 -39 -113 -391 -151 -647 -18
-124 -47 -499 -46 -585 2 -80 2 -79 -16 -64 -15 12 -16 32 -11 164 7 157 31
424 48 535 28 186 146 702 162 712 7 4 30 8 52 9 22 0 49 4 60 9 11 5 22 9 25
9 3 1 2 -45 -2 -102z m387 93 c-3 -5 -10 -10 -16 -10 -5 0 -9 5 -9 10 0 6 7
10 16 10 8 0 12 -4 9 -10z m1195 0 c0 -5 -26 -28 -57 -51 -32 -23 -96 -82
-143 -131 -47 -48 -89 -88 -93 -88 -4 0 -7 10 -7 23 0 27 132 157 221 216 63
42 79 48 79 31z m-3218 -112 c-4 -100 -3 -112 13 -125 18 -12 18 -14 -7 -40
-51 -56 -62 -80 -48 -113 15 -35 33 -38 54 -8 14 19 16 20 22 4 7 -19 0 -113
-10 -123 -3 -3 -16 3 -29 15 -28 26 -35 27 -59 5 -24 -22 -23 -35 5 -31 29 4
35 -33 11 -70 -42 -64 -198 -257 -210 -260 -28 -7 -15 18 106 206 51 79 60
111 24 81 -10 -8 -41 -46 -71 -86 -65 -88 -78 -98 -68 -52 11 50 36 109 46
109 5 0 29 30 53 68 24 37 53 76 65 86 19 17 29 46 15 46 -19 0 -47 -26 -64
-59 -20 -40 -76 -89 -88 -77 -8 9 14 135 39 221 27 88 81 204 116 246 21 24
78 69 89 69 1 0 -1 -50 -4 -112z m1407 62 c-6 -16 -15 -30 -20 -30 -11 0 -11
3 1 34 14 37 32 33 19 -4z m1469 -59 c3 -68 1 -73 -26 -101 -32 -32 -97 -49
-115 -31 -12 12 15 147 37 176 11 16 69 35 91 31 6 -2 11 -35 13 -75z m-668
29 c0 -5 -4 -10 -10 -10 -5 0 -10 5 -10 10 0 6 5 10 10 10 6 0 10 -4 10 -10z
m-465 -92 c41 -115 69 -129 77 -38 3 28 8 53 12 57 15 15 21 -15 19 -98 -2
-53 1 -89 7 -89 6 0 10 6 10 13 0 6 5 44 10 82 17 118 25 128 53 70 13 -28 23
-35 44 -35 46 0 155 29 192 51 18 11 36 17 39 15 15 -16 -76 -77 -143 -95 -70
-19 -77 -33 -13 -25 50 5 59 4 65 -12 3 -9 -2 -74 -11 -143 -12 -83 -19 -209
-22 -371 -4 -275 7 -287 25 -28 17 249 42 513 50 545 9 34 37 42 46 14 8 -26
-12 -458 -25 -531 -14 -82 -23 -466 -13 -532 15 -87 -16 -71 -47 25 -13 38
-22 52 -36 52 -13 0 -29 19 -51 65 -40 80 -53 129 -99 383 -20 111 -40 212
-45 225 -5 12 -12 58 -15 102 -6 70 -9 80 -24 75 -13 -4 -21 2 -28 25 -13 37
-29 39 -38 4 -6 -24 20 -115 85 -287 12 -31 26 -103 31 -160 24 -239 98 -449
255 -727 52 -91 59 -121 50 -206 l-8 -66 -38 72 c-21 40 -50 85 -64 100 -20
21 -25 33 -19 53 5 23 1 29 -25 44 -17 10 -31 25 -31 33 0 8 -16 38 -36 65
-74 102 -141 273 -183 469 -12 54 -27 108 -34 120 -11 19 -12 15 -15 -33 -5
-80 23 -202 75 -326 25 -60 47 -121 50 -135 4 -22 0 -20 -35 17 -28 30 -44 61
-57 105 -36 129 -116 367 -125 373 -30 18 28 -224 92 -388 17 -42 28 -80 24
-84 -12 -12 -54 39 -80 97 -15 33 -42 112 -61 177 -19 65 -47 141 -61 170 -24
47 -26 60 -21 121 4 37 14 90 22 118 8 27 15 66 15 86 0 20 18 106 39 190 22
84 43 178 47 208 7 56 21 87 35 73 4 -4 19 -43 34 -85z m1485 83 c0 -5 -15
-18 -32 -28 -52 -31 -144 -120 -177 -171 -17 -26 -40 -57 -53 -69 -12 -12 -19
-25 -16 -28 3 -3 43 30 90 73 94 88 185 162 199 162 13 0 36 -50 44 -97 6 -41
5 -42 -33 -67 -51 -32 -86 -69 -175 -184 -80 -105 -73 -106 -98 13 l-13 60
-14 -92 c-16 -104 -34 -117 -25 -19 4 41 2 66 -5 70 -13 8 -15 0 -37 -118 -8
-43 -22 -90 -31 -104 -9 -13 -49 -39 -90 -58 -41 -19 -74 -39 -74 -45 0 -6 8
-8 18 -5 9 3 48 13 85 22 64 16 69 16 87 -1 11 -10 20 -21 20 -24 0 -4 -43
-28 -95 -55 -52 -26 -95 -52 -95 -56 0 -4 21 -2 48 6 26 8 76 22 112 30 70 17
100 36 100 65 0 23 57 89 76 89 29 0 2 -71 -45 -114 -17 -17 -31 -36 -31 -43
0 -7 -3 -13 -7 -13 -5 0 -55 -29 -111 -64 -57 -36 -109 -67 -115 -69 -7 -2
-10 -7 -7 -10 3 -3 50 16 105 43 78 37 118 65 183 125 46 43 85 75 88 72 3 -3
1 -21 -5 -39 -6 -18 -17 -69 -26 -113 -8 -44 -17 -92 -21 -106 -5 -21 -2 -27
16 -32 21 -5 21 -6 4 -38 -40 -79 -216 -211 -403 -305 -126 -63 -146 -67 -138
-26 6 33 36 229 77 507 39 265 95 545 112 561 7 6 35 14 61 17 l49 5 -29 -31
c-29 -32 -31 -32 39 -4 22 9 31 8 46 -7 19 -16 20 -16 40 16 10 18 22 45 26
59 17 76 276 300 276 240z m-2608 -110 c16 -24 16 -27 -5 -64 -24 -44 -55 -66
-61 -45 -3 7 -7 45 -10 83 -4 39 -9 86 -12 105 l-6 35 38 -44 c22 -24 47 -56
56 -70z m1742 88 c-3 -5 -10 -7 -15 -3 -5 3 -7 10 -3 15 3 5 10 7 15 3 5 -3 7
-10 3 -15z m-569 2 c3 -5 1 -12 -5 -16 -5 -3 -10 1 -10 9 0 18 6 21 15 7z
m479 -24 c-3 -9 -10 -17 -15 -17 -11 0 -12 34 -2 44 11 11 24 -9 17 -27z
m-144 9 c0 -23 -27 -37 -94 -49 -59 -10 -89 -6 -74 9 13 12 124 54 146 54 12
0 22 -6 22 -14z m-1740 -41 c48 -31 94 -81 86 -94 -12 -18 -23 -13 -76 34 -28
25 -59 45 -69 45 -10 0 -24 7 -32 16 -10 13 -10 17 2 25 17 11 43 3 89 -26z
m3252 -47 c66 -114 98 -188 105 -236 l6 -47 -21 19 c-12 10 -29 44 -38 74 -8
31 -33 88 -54 127 -65 121 -64 176 2 63z m-3426 -62 c-19 -52 -42 -108 -51
-126 -9 -17 -14 -34 -11 -37 11 -11 29 12 53 65 28 64 41 60 50 -15 7 -65 1
-90 -36 -132 -16 -19 -37 -55 -47 -80 -9 -25 -31 -73 -48 -106 l-31 -60 -7 75
c-11 123 1 253 28 303 13 23 40 74 60 112 40 77 52 95 65 95 5 0 -7 -42 -25
-94z m2055 -79 c-1 -80 -7 -232 -15 -338 -8 -107 -20 -288 -27 -404 -17 -316
-29 -319 -23 -5 8 458 31 861 50 892 13 20 15 -5 15 -145z m-1436 133 c3 -5 1
-10 -4 -10 -6 0 -11 5 -11 10 0 6 2 10 4 10 3 0 8 -4 11 -10z m-464 -33 c37
-25 96 -103 86 -113 -4 -4 -29 16 -57 44 -27 27 -65 55 -85 62 -19 6 -35 16
-35 21 0 17 57 9 91 -14z m2499 -20 c0 -29 -40 -51 -100 -55 -49 -4 -60 -2
-60 11 0 21 19 34 70 45 65 14 90 14 90 -1z m-2472 -99 c46 -61 72 -138 72
-217 l0 -56 -40 46 c-22 26 -62 61 -90 79 l-50 32 0 82 c0 44 3 91 6 103 l6
23 28 -20 c15 -10 45 -43 68 -72z m271 -69 c-14 -127 -31 -140 -23 -19 7 122
12 150 24 129 6 -10 5 -55 -1 -110z m3120 68 c0 -21 -1 -21 -9 -2 -12 28 -12
37 0 30 6 -3 10 -16 9 -28z m-479 9 c0 -20 -39 -66 -56 -66 -21 0 -18 57 4 69
25 15 52 13 52 -3z m-3597 -27 c0 -13 -4 -50 -8 -81 -6 -41 -4 -62 5 -73 10
-13 10 -19 -4 -34 -27 -29 -47 -173 -53 -378 -3 -106 -9 -193 -13 -193 -4 0
-11 29 -15 65 -3 36 -11 65 -16 65 -15 0 -10 -155 7 -228 26 -115 33 -137 49
-157 15 -19 16 -19 47 20 84 105 138 144 138 101 0 -7 -23 -51 -51 -97 -28
-46 -55 -94 -60 -106 -15 -40 9 -25 52 32 23 30 45 55 50 55 26 0 -9 -70 -67
-132 -47 -51 -53 -65 -28 -75 10 -4 32 11 65 43 26 26 51 45 55 42 11 -12 24
-83 23 -133 -1 -44 -2 -46 -8 -19 -24 97 -43 60 -49 -93 -5 -116 -6 -125 -18
-98 -7 17 -14 44 -15 60 -1 17 -6 -3 -11 -44 -10 -80 -30 -131 -53 -131 -23 0
-26 13 -37 153 -8 98 -7 152 2 211 9 60 9 81 0 86 -7 4 -10 18 -8 31 5 35 -25
36 -41 2 l-13 -28 -19 23 c-22 28 -38 84 -49 170 -5 35 -10 66 -13 68 -2 3 -7
-18 -11 -46 -8 -59 -25 -62 -43 -8 -18 56 -33 256 -23 313 5 28 16 100 24 160
8 61 19 123 25 138 14 36 14 77 1 77 -19 0 -10 21 13 29 13 5 31 27 42 53 17
38 49 96 92 166 18 29 39 23 36 -9z m801 -53 c3 -14 3 -32 -1 -42 -6 -16 -7
-16 -14 2 -11 27 -11 64 0 64 5 0 12 -11 15 -24z m2669 -34 c-44 -59 -52 -29
-9 33 18 25 21 27 24 11 2 -10 -5 -30 -15 -44z m127 18 c0 -21 -42 -54 -61
-48 -12 4 36 68 52 68 5 0 9 -9 9 -20z m-2739 -305 c-14 -206 -32 -357 -42
-369 -11 -13 -11 -6 1 189 13 209 29 383 38 420 13 55 14 -68 3 -240z m2753
204 c3 -17 6 -66 6 -108 0 -88 -11 -111 -69 -141 -21 -10 -52 -35 -69 -55 -18
-20 -32 -32 -32 -27 0 4 16 47 35 95 43 107 45 126 9 119 -33 -6 -31 -2 39 86
28 34 56 62 62 62 7 0 15 -14 19 -31z m597 -152 c9 -122 7 -169 -5 -116 -11
46 -26 194 -25 244 1 90 19 13 30 -128z m-3071 90 c0 -76 -9 -115 -21 -95 -10
15 -12 112 -3 145 11 41 24 13 24 -50z m-521 48 c38 -19 131 -124 131 -147 0
-26 -15 -22 -57 16 -21 18 -65 50 -97 71 l-60 38 23 18 c28 23 25 23 60 4z
m2775 -7 c-14 -44 -57 -98 -102 -128 -49 -33 -82 -39 -82 -15 0 8 6 15 14 15
7 0 47 34 87 75 76 78 95 90 83 53z m86 -2 c0 -18 -79 -136 -91 -136 -21 0 3
57 48 118 25 34 43 41 43 18z m-3156 -38 c3 -13 6 -72 6 -133 -1 -112 -12
-126 -25 -30 -10 80 -25 90 -25 17 0 -34 -7 -79 -15 -99 -8 -19 -15 -50 -15
-67 0 -48 -221 -376 -253 -376 -15 0 -1 223 18 288 19 63 136 240 214 325 32
34 60 70 64 80 9 24 23 21 31 -5z m305 -73 c21 -20 58 -60 81 -90 32 -42 41
-61 38 -86 -3 -31 -5 -29 -58 52 -32 49 -73 97 -97 114 -23 17 -42 33 -42 38
-2 19 43 3 78 -28z m3398 -172 c-4 -156 -8 -188 -31 -260 -15 -45 -31 -85 -36
-88 -13 -8 -13 8 4 90 8 39 22 138 30 220 19 175 25 215 33 215 3 0 3 -80 0
-177z m-3399 71 c27 -30 66 -87 86 -126 36 -70 36 -71 36 -198 0 -71 -4 -131
-8 -134 -5 -3 -15 20 -22 51 -16 75 -60 176 -122 280 -38 64 -50 95 -50 124 1
76 15 76 80 3z m3459 -119 c-4 -116 -9 -153 -31 -218 -36 -106 -90 -207 -103
-193 -4 4 23 69 97 233 16 34 21 77 27 200 4 87 9 149 11 138 2 -11 2 -83 -1
-160z m-2983 143 c8 -32 6 -115 -3 -163 -5 -22 -9 -38 -10 -35 -8 34 -19 179
-15 197 8 29 20 30 28 1z m2536 -52 c0 -16 -16 -35 -55 -64 -30 -23 -55 -38
-55 -33 0 17 87 121 102 121 4 0 8 -11 8 -24z m-3230 -53 c-12 -26 -24 -42
-27 -35 -3 6 6 33 18 59 29 61 37 39 9 -24z m60 -19 c0 -23 -133 -280 -138
-266 -5 15 9 51 72 185 42 90 66 119 66 81z m3183 -23 c6 -24 -1 -34 -38 -54
-16 -9 -40 -22 -53 -28 -17 -10 -25 -10 -34 -1 -9 9 0 23 36 57 52 48 81 57
89 26z m-1754 -176 c30 -96 51 -178 48 -181 -6 -7 -13 -3 -79 45 -44 32 -48
38 -48 75 0 79 13 236 19 236 4 0 31 -79 60 -175z m-1331 103 c39 -50 40 -82
11 -186 -47 -166 -152 -389 -205 -432 -8 -8 -22 -27 -31 -43 -17 -34 -91 -117
-104 -117 -5 0 -9 55 -8 123 1 109 2 118 12 82 32 -110 48 -75 40 86 -6 125
-6 126 19 150 51 49 139 205 190 337 9 23 23 42 30 42 8 0 28 -19 46 -42z
m478 -22 c-3 -14 -11 -26 -16 -26 -11 0 -14 73 -3 84 12 12 26 -31 19 -58z
m-706 40 c0 -22 -11 -46 -21 -46 -10 0 -12 43 -2 53 11 12 23 8 23 -7z m3333
-154 c9 -119 4 -142 -33 -142 -10 0 -48 -14 -84 -31 -72 -34 -92 -32 -59 4 67
73 48 102 -25 37 -31 -28 -58 -46 -60 -41 -4 13 32 84 86 164 49 73 115 129
147 125 18 -3 21 -14 28 -116z m-2782 -37 l-9 -40 -1 37 c-1 41 11 84 17 58 1
-9 -2 -33 -7 -55z m-641 25 c0 -10 -5 -22 -10 -25 -13 -8 -24 20 -16 41 8 20
26 9 26 -16z m3500 -25 c0 -8 -4 -15 -10 -15 -5 0 -10 7 -10 15 0 8 5 15 10
15 6 0 10 -7 10 -15z m-2726 -30 c4 -14 3 -49 -1 -78 -6 -47 -8 -49 -14 -22
-17 77 -3 172 15 100z m2387 -8 c-16 -16 -26 0 -10 19 9 11 15 12 17 4 2 -6
-1 -17 -7 -23z m-2765 -14 c14 -55 -62 -246 -142 -358 -28 -38 -85 -120 -127
-181 -43 -60 -99 -135 -127 -165 -41 -44 -51 -51 -60 -39 -5 8 -10 24 -10 35
0 15 3 16 12 7 19 -19 26 -15 47 33 11 25 36 65 54 88 19 23 42 58 52 77 10
19 43 67 75 105 90 110 118 161 162 298 23 70 45 127 49 127 5 0 12 -12 15
-27z m-466 -24 c0 -10 -4 -19 -10 -19 -5 0 -10 12 -10 26 0 14 4 23 10 19 6
-3 10 -15 10 -26z m1749 -56 l64 -38 -36 -3 c-20 -2 -46 2 -59 8 -23 11 -10
-2 68 -65 33 -26 139 -220 129 -235 -3 -5 -15 -6 -28 0 -70 27 -104 44 -120
58 -17 15 -17 16 5 29 13 7 18 12 11 13 -46 1 -123 126 -123 199 0 20 -7 31
-25 39 -37 17 -31 32 13 32 25 0 58 -12 101 -37z m1300 -56 c-31 -29 -94 -74
-140 -102 -86 -51 -231 -115 -261 -115 -47 0 6 46 90 79 81 32 184 86 268 141
42 27 82 50 88 50 6 -1 -14 -24 -45 -53z m451 23 c0 -21 -14 -31 -169 -118
-46 -26 -106 -66 -132 -89 -53 -48 -65 -53 -48 -20 35 66 147 165 243 213 80
39 106 43 106 14z m-2995 -37 c-20 -109 -93 -257 -170 -344 -30 -35 -88 -111
-128 -168 -80 -116 -172 -221 -193 -221 -8 0 -14 4 -14 8 0 11 101 134 160
197 27 28 69 88 95 135 25 47 64 107 85 135 46 61 104 164 125 225 8 25 17 51
20 58 2 6 10 12 16 12 8 0 9 -12 4 -37z m3225 4 c0 -25 -25 -66 -34 -56 -8 8
14 79 24 79 6 0 10 -10 10 -23z m-1822 -23 c24 -16 29 -34 10 -34 -14 0 -48
30 -48 42 0 12 13 10 38 -8z m1738 -38 c-7 -29 -46 -56 -46 -33 0 17 40 70 47
63 3 -3 3 -16 -1 -30z m-1998 -8 c5 -18 7 -37 4 -42 -6 -11 -31 33 -32 57 0
29 19 19 28 -15z m1451 -56 c-27 -55 -62 -96 -198 -232 -91 -91 -199 -190
-238 -219 -71 -53 -87 -71 -59 -71 36 0 176 116 313 259 75 77 105 103 113 95
7 -7 8 -23 4 -40 -10 -42 -228 -250 -351 -335 -55 -38 -107 -76 -113 -84 -21
-25 -40 -18 -40 14 0 16 11 82 25 147 13 66 31 156 40 202 20 105 32 131 64
138 84 17 251 93 344 156 37 25 64 37 76 33 11 -3 24 1 32 11 27 33 21 -8 -12
-74z m401 78 c0 -5 -5 -10 -11 -10 -5 0 -7 5 -4 10 3 6 8 10 11 10 2 0 4 -4 4
-10z m-2710 -25 c0 -8 -4 -17 -10 -20 -6 -4 -10 5 -10 20 0 15 4 24 10 20 6
-3 10 -12 10 -20z m761 -35 l24 -20 -30 2 c-19 2 -31 9 -33 21 -5 23 10 22 39
-3z m514 -39 c-10 -16 -25 -3 -25 22 0 20 1 20 16 5 9 -9 13 -21 9 -27z m1325
34 c0 -2 -18 -14 -39 -25 -44 -22 -65 -11 -29 14 21 15 68 22 68 11z m-1418
-32 c25 -28 128 -193 128 -206 0 -20 -32 -2 -63 34 -35 41 -107 167 -107 188
0 18 15 12 42 -16z m1558 12 c-7 -8 -17 -15 -22 -15 -6 0 -5 7 2 15 7 8 17 15
22 15 6 0 5 -7 -2 -15z m-2990 -15 c0 -6 -7 -46 -15 -88 -35 -170 -259 -540
-390 -641 -18 -14 -57 -46 -87 -70 -29 -24 -69 -51 -88 -59 -19 -9 -45 -25
-58 -37 -23 -19 -24 -19 -37 -1 -15 20 -35 102 -35 144 0 15 10 43 21 62 20
32 23 33 33 17 23 -38 32 -45 63 -52 30 -6 34 -4 44 22 5 15 52 71 103 123 51
52 119 131 151 175 32 44 85 105 117 135 66 63 122 151 144 228 9 28 20 52 25
52 5 0 9 -5 9 -10z m998 -39 c3 -8 -1 -12 -9 -9 -7 2 -15 10 -17 17 -3 8 1 12
9 9 7 -2 15 -10 17 -17z m567 -42 c9 -17 14 -38 12 -47 -3 -12 -9 -6 -20 20
-27 60 -20 82 8 27z m-671 0 c-3 -5 -10 -7 -15 -3 -5 3 -7 10 -3 15 3 5 10 7
15 3 5 -3 7 -10 3 -15z m1871 11 c7 -12 -39 -24 -61 -16 -8 3 -12 10 -9 16 8
13 62 13 70 0z m-2545 -85 c0 -67 -7 -85 -32 -85 -15 0 -18 4 -13 18 4 9 11
43 17 74 12 70 28 66 28 -7z m70 -77 c2 -104 1 -106 -10 -88 -8 14 -14 124
-10 190 3 59 19 -20 20 -102z m604 86 c9 -22 6 -185 -3 -209 -15 -38 -31 18
-31 109 0 85 5 116 20 116 4 0 11 -7 14 -16z m134 -2 c3 -9 -2 -13 -14 -10 -9
1 -19 9 -22 16 -3 9 2 13 14 10 9 -1 19 -9 22 -16z m282 -1 c0 -12 -29 -23
-41 -15 -5 3 -7 10 -4 15 8 12 45 12 45 0z m360 -88 c30 -42 67 -91 83 -110
16 -18 27 -36 24 -40 -13 -13 -39 9 -74 64 -20 32 -51 76 -68 98 -44 55 -49
65 -32 65 8 0 38 -34 67 -77z m-666 44 c16 -12 16 -14 2 -26 -13 -11 -22 -12
-44 -2 -26 12 -26 13 -7 27 23 17 27 17 49 1z m197 0 c-1 -12 -15 -9 -19 4 -3
6 1 10 8 8 6 -3 11 -8 11 -12z m235 -31 c56 -19 58 -40 3 -31 -79 12 -150 35
-143 47 8 12 84 4 140 -16z m-278 -14 c2 -7 -3 -12 -12 -12 -9 0 -16 7 -16 16
0 17 22 14 28 -4z m82 -22 c0 -5 -4 -10 -10 -10 -5 0 -10 5 -10 10 0 6 5 10
10 10 6 0 10 -4 10 -10z m373 -4 c7 -17 -1 -26 -24 -26 -21 0 -33 15 -24 30 9
15 42 12 48 -4z m-603 -35 c5 -11 11 -41 13 -67 2 -40 -1 -49 -16 -52 -43 -9
-73 64 -51 122 8 22 41 20 54 -3z m516 2 c21 -8 17 -21 -8 -25 -24 -3 -135 8
-178 18 -24 6 -24 7 -5 15 20 9 164 3 191 -8z m-366 -169 c0 -14 -32 0 -49 22
-15 19 -21 41 -21 78 l0 50 35 -73 c19 -40 35 -75 35 -77z m84 34 c44 -82 48
-112 13 -85 -21 16 -76 127 -84 169 -5 30 -4 31 10 18 9 -8 36 -54 61 -102z
m414 93 c3 -8 -1 -12 -9 -9 -7 2 -15 10 -17 17 -3 8 1 12 9 9 7 -2 15 -10 17
-17z m-94 -40 c9 -8 13 -18 9 -22 -11 -10 -173 17 -187 31 -17 18 156 9 178
-9z m156 -32 c0 -5 -7 -9 -15 -9 -15 0 -20 12 -9 23 8 8 24 -1 24 -14z m-366
-56 c36 -46 43 -63 28 -63 -13 0 -58 52 -76 87 -24 47 3 34 48 -24z m1049 43
c12 -31 19 -109 10 -103 -6 4 -13 23 -16 44 -3 21 -8 46 -12 56 -4 9 -3 17 3
17 5 0 12 -6 15 -14z m-898 -11 c28 -4 67 -11 88 -16 41 -11 110 -66 101 -80
-6 -10 -100 -12 -169 -2 -35 4 -56 15 -81 40 -40 40 -46 76 -11 69 12 -3 45
-8 72 -11z m-467 -42 c2 -8 -5 -13 -17 -13 -21 0 -35 13 -24 24 10 10 36 3 41
-11z m-232 -4 c3 -6 1 -16 -5 -22 -9 -9 -14 -8 -21 3 -5 8 -10 18 -10 23 0 11
28 8 36 -4z m1515 -299 c-8 -70 -8 -65 -10 76 0 83 2 167 7 185 11 51 14 -170
3 -261z m-1424 236 c-4 -9 -11 -16 -17 -16 -15 0 -24 26 -16 47 6 15 8 15 23
1 9 -9 13 -24 10 -32z m292 18 c1 -1 0 -7 -4 -13 -7 -13 -45 -14 -64 -2 -11 7
-10 11 5 19 16 10 50 7 63 -4z m-1846 -22 c3 -17 21 -40 41 -56 37 -28 47 -56
21 -56 -7 0 -18 8 -24 17 -6 11 -22 17 -43 18 -31 0 -33 2 -36 39 -2 21 -1 44
2 52 9 24 33 15 39 -14z m1671 -8 c19 -18 21 -34 4 -34 -14 0 -48 30 -48 42 0
14 28 9 44 -8z m183 -41 c6 -16 -45 -29 -59 -15 -6 6 -7 15 -3 22 9 14 57 9
62 -7z m191 -31 c3 -9 -3 -13 -19 -10 -12 1 -24 9 -27 16 -3 9 3 13 19 10 12
-1 24 -9 27 -16z m112 -13 c0 -6 -4 -7 -10 -4 -5 3 -10 11 -10 16 0 6 5 7 10
4 6 -3 10 -11 10 -16z m198 12 c10 -6 8 -10 -10 -14 -35 -10 -108 -8 -108 2 0
18 94 28 118 12z m939 -33 c-3 -8 -6 -5 -6 6 -1 11 2 17 5 13 3 -3 4 -12 1
-19z m-1607 -28 c82 5 137 4 339 -8 255 -16 260 -26 33 -77 -93 -21 -137 -26
-178 -21 -43 5 -54 3 -54 -8 0 -8 5 -18 10 -21 23 -14 6 -23 -57 -29 -91 -9
-113 -16 -113 -32 0 -8 10 -14 23 -14 95 -1 368 -21 394 -29 19 -5 67 -6 116
-2 71 7 96 14 150 45 73 40 98 34 48 -13 -33 -31 -194 -96 -273 -111 -28 -6
-145 -10 -260 -10 -205 0 -209 0 -203 -20 4 -13 2 -20 -7 -20 -7 0 -45 9 -83
20 -72 21 -125 24 -160 11 -17 -7 -15 -9 15 -19 104 -33 426 -69 514 -56 75
10 32 27 -59 22 -45 -2 -75 1 -75 7 0 11 174 23 235 15 l40 -5 -24 -17 -24
-17 27 -7 c39 -9 208 13 269 36 58 22 77 25 77 10 0 -16 -78 -51 -154 -67
-133 -30 -476 -19 -746 23 -146 22 -134 11 -126 122 8 108 33 278 42 294 5 7
39 8 108 2 56 -4 126 -7 156 -4z m1527 -12 c-3 -8 -6 -5 -6 6 -1 11 2 17 5 13
3 -3 4 -12 1 -19z m-787 -62 c0 -28 -132 -128 -148 -112 -3 3 3 15 13 26 18
19 17 20 -2 20 -11 0 -46 -11 -76 -25 -31 -14 -75 -26 -99 -27 -69 -2 -169 14
-165 26 4 13 255 74 355 86 41 5 76 11 80 14 11 12 42 6 42 -8z m-60 -214 c0
-32 -90 -68 -199 -78 -81 -8 -74 9 10 25 31 5 82 21 115 34 67 29 74 30 74 19z
m-1730 -30 c0 -13 -12 -22 -22 -16 -10 6 -1 24 13 24 5 0 9 -4 9 -8z m2517
-34 c-3 -8 -6 -5 -6 6 -1 11 2 17 5 13 3 -3 4 -12 1 -19z m182 -125 c1 -29 -3
-53 -9 -53 -6 0 -10 38 -9 98 1 82 3 90 10 52 4 -25 8 -69 8 -97z m-281 -43
c1 -39 -2 -49 -8 -35 -5 11 -8 61 -8 110 1 84 1 86 8 35 5 -30 8 -80 8 -110z
m-1625 -1 c-17 -17 -37 -1 -22 17 8 10 15 12 23 4 7 -7 7 -13 -1 -21z m973
-16 c4 -27 2 -392 -5 -813 -12 -823 -20 -1100 -31 -1100 -8 0 -63 116 -181
385 -108 247 -171 376 -193 394 -9 8 -16 9 -16 4 0 -6 33 -82 74 -171 41 -88
91 -205 111 -259 20 -54 70 -172 111 -261 41 -90 74 -167 74 -170 0 -3 12 -23
26 -43 20 -30 25 -46 22 -85 -2 -27 -7 -48 -12 -48 -34 6 -389 758 -425 899
-6 22 -18 49 -26 60 -15 19 -16 18 -10 -16 7 -47 78 -231 155 -404 34 -77 84
-195 110 -262 58 -146 166 -353 185 -353 18 0 25 -33 25 -120 0 -78 -7 -120
-20 -120 -4 0 -18 28 -30 63 -13 34 -56 136 -95 227 -109 247 -153 354 -161
386 -4 16 -17 50 -30 75 -12 25 -53 121 -89 215 -37 93 -76 186 -87 207 -18
36 -19 59 -17 390 2 303 -1 377 -19 532 -24 204 -37 385 -29 385 11 0 175
-206 222 -280 27 -41 50 -69 53 -62 6 19 -108 207 -165 273 -29 33 -53 63 -53
66 0 7 134 -5 185 -17 20 -5 51 -21 67 -37 44 -41 122 -160 180 -273 52 -104
75 -127 63 -63 -14 74 -114 253 -183 325 l-36 37 34 15 c47 19 70 6 110 -62
18 -32 45 -75 59 -97 23 -35 26 -37 29 -18 2 14 -16 53 -47 101 -54 83 -62
112 -33 112 9 1 28 7 42 15 40 23 48 18 56 -32z m-827 -51 c34 -162 46 -741
31 -1632 -15 -950 -33 -1466 -65 -1845 -22 -261 -28 -754 -16 -1235 6 -239 15
-721 21 -1070 5 -349 12 -713 16 -808 4 -115 2 -172 -4 -172 -35 0 -45 196
-72 1410 -9 406 -35 1059 -44 1085 -2 6 -7 -30 -11 -80 -9 -103 1 -592 16
-770 14 -169 23 -1636 10 -1655 -28 -41 -32 15 -41 556 -9 517 -17 753 -40
1179 -16 308 -12 794 10 1102 41 587 58 1045 70 1893 20 1386 22 1678 12 1850
-9 176 -4 220 24 220 7 0 15 -4 18 -8 5 -8 17 -272 32 -694 4 -104 11 -188 15
-188 15 0 10 550 -6 725 -18 197 -18 185 -1 185 9 0 18 -18 25 -48z m205 11
c43 -285 55 -1010 22 -1333 -17 -165 -18 -231 -11 -600 4 -228 10 -442 14
-475 16 -144 24 32 25 545 1 378 5 542 13 560 10 24 11 24 18 5 3 -11 27 -67
52 -125 40 -92 137 -323 263 -625 20 -49 65 -164 99 -255 34 -90 71 -179 83
-198 18 -29 21 -53 25 -220 2 -103 0 -232 -4 -287 l-8 -100 -39 80 c-21 44
-76 174 -122 290 -161 410 -274 659 -324 715 l-21 25 5 -33 c3 -18 35 -99 70
-180 36 -81 106 -255 156 -387 103 -274 223 -525 258 -540 20 -9 22 -16 22
-96 0 -175 -13 -453 -21 -434 -4 11 -53 135 -108 275 -282 724 -364 920 -377
908 -6 -6 68 -213 96 -268 10 -19 44 -109 75 -200 102 -295 215 -593 260 -687
56 -114 59 -145 50 -419 l-7 -218 -40 94 c-22 52 -94 225 -159 384 -138 331
-257 590 -317 690 -23 37 -42 79 -42 92 0 13 -4 24 -9 24 -14 0 -21 -40 -20
-125 1 -73 2 -76 10 -36 5 24 11 46 14 49 7 7 184 -362 239 -498 25 -63 74
-191 110 -285 35 -93 92 -235 126 -315 75 -178 93 -231 81 -243 -11 -11 -64
59 -103 136 -54 107 -149 340 -243 597 -116 317 -126 342 -132 336 -3 -2 12
-58 32 -123 86 -278 177 -516 300 -788 152 -334 146 -320 143 -380 -2 -30 -7
-56 -13 -56 -5 -1 -35 57 -66 127 -31 71 -86 192 -122 270 -36 78 -102 235
-148 350 -206 525 -239 598 -239 532 0 -32 78 -262 130 -383 80 -187 123 -292
147 -360 36 -100 143 -345 229 -524 l74 -154 -1 -206 c0 -113 -4 -228 -8 -256
l-8 -50 -57 120 c-73 151 -208 452 -275 613 -70 167 -156 348 -170 356 -21 13
-12 -24 30 -122 23 -53 75 -182 116 -287 119 -304 161 -399 220 -501 103 -179
156 -300 161 -365 3 -37 1 -59 -6 -59 -24 0 -184 292 -255 465 -59 145 -175
402 -247 545 l-57 115 -11 328 c-5 180 -13 331 -16 334 -3 4 -9 3 -13 -1 -12
-12 -7 -699 6 -986 18 -370 16 -906 -3 -995 -10 -49 -12 -83 -6 -110 11 -49
27 -320 36 -600 8 -238 10 -230 -69 -241 -38 -5 -47 -3 -55 12 -26 51 -41 461
-53 1474 -6 476 -13 973 -16 1105 -5 245 7 588 33 910 8 105 18 458 24 845 5
366 15 859 21 1096 11 419 1 1065 -20 1278 -4 42 -5 79 -2 81 2 3 37 5 77 5
l72 0 6 -37z m-358 -60 c13 -119 -18 -2914 -36 -3183 -5 -91 -20 -304 -32
-475 -27 -374 -31 -1053 -9 -1500 12 -264 30 -1493 22 -1543 -3 -20 -8 -23
-30 -17 -14 3 -44 18 -66 33 l-40 28 4 212 c2 136 0 212 -6 212 -6 0 -15 -33
-20 -72 l-10 -73 -2 103 c-1 77 3 113 15 138 13 26 14 37 5 48 -8 10 -14 169
-21 532 -11 590 -5 878 40 1864 37 809 46 1083 60 1655 6 248 15 632 20 855 6
223 13 556 16 740 6 311 5 334 -10 315 -15 -19 -16 -13 -10 80 4 55 9 103 11
108 2 4 24 7 48 7 l43 0 8 -67z m-845 4 c-13 -13 -26 -3 -16 12 3 6 11 8 17 5
6 -4 6 -10 -1 -17z m2576 1 c-3 -8 -6 -5 -6 6 -1 11 2 17 5 13 3 -3 4 -12 1
-19z m183 -13 c0 -8 -4 -17 -10 -20 -6 -4 -10 5 -10 20 0 15 4 24 10 20 6 -3
10 -12 10 -20z m-2031 -312 c0 -76 -4 -160 -9 -188 -5 -37 -8 -13 -9 98 0 82
-6 157 -11 168 -7 13 -7 19 0 19 5 0 10 9 10 20 0 11 5 20 10 20 6 0 10 -52 9
-137z m2146 -550 c4 -56 4 -119 -1 -140 l-7 -38 -8 45 c-4 25 -10 140 -13 255
l-5 210 13 -115 c8 -63 17 -161 21 -217z m-2167 -254 c-2 -6 -8 -10 -13 -10
-5 0 -11 4 -13 10 -2 6 4 11 13 11 9 0 15 -5 13 -11z m2176 -31 c9 -35 7 -108
-3 -108 -9 0 -21 57 -21 103 0 33 15 36 24 5z m-33 -465 c4 -70 15 -297 24
-503 8 -206 20 -433 25 -505 12 -163 13 -262 1 -250 -11 13 -49 640 -61 1030
-12 358 -12 370 -4 362 4 -3 10 -64 15 -134z m-2141 62 c0 -8 -4 -15 -10 -15
-5 0 -10 7 -10 15 0 8 5 15 10 15 6 0 10 -7 10 -15z m2307 -87 c-3 -8 -6 -5
-6 6 -1 11 2 17 5 13 3 -3 4 -12 1 -19z m187 -603 c103 -636 219 -1596 230
-1900 5 -139 5 -139 -9 -75 -7 36 -28 191 -45 345 -97 880 -107 962 -190 1571
-28 201 -50 371 -49 377 2 36 23 -69 63 -318z m-297 258 c-3 -10 -5 -2 -5 17
0 19 2 27 5 18 2 -10 2 -26 0 -35z m98 -373 c13 -135 36 -368 50 -518 14 -149
31 -329 40 -400 15 -131 69 -727 80 -887 3 -49 9 -102 11 -117 3 -16 1 -28 -4
-28 -18 0 -30 92 -72 535 -56 599 -80 826 -105 1005 -26 192 -54 730 -35 680
5 -14 21 -135 35 -270z m-88 148 c-3 -8 -6 -5 -6 6 -1 11 2 17 5 13 3 -3 4
-12 1 -19z m0 -70 c-3 -8 -6 -5 -6 6 -1 11 2 17 5 13 3 -3 4 -12 1 -19z m200
-20 c-3 -8 -6 -5 -6 6 -1 11 2 17 5 13 3 -3 4 -12 1 -19z m-200 -90 c-3 -7 -5
-2 -5 12 0 14 2 19 5 13 2 -7 2 -19 0 -25z m237 -110 c45 -208 119 -733 115
-817 -3 -65 -67 324 -109 659 -11 91 -22 180 -25 198 -11 61 3 32 19 -40z
m-217 -50 c-3 -8 -6 -5 -6 6 -1 11 2 17 5 13 3 -3 4 -12 1 -19z m-2327 -89 c0
-24 -4 -38 -10 -34 -17 10 -11 75 7 75 2 0 3 -18 3 -41z m-23 -341 c-3 -8 -6
-5 -6 6 -1 11 2 17 5 13 3 -3 4 -12 1 -19z m2548 -137 c4 -61 3 -81 -4 -70 -6
9 -13 61 -16 115 -3 71 -2 91 5 70 5 -16 12 -68 15 -115z m69 -86 c14 -99 35
-272 46 -385 11 -113 27 -245 35 -295 8 -49 21 -151 30 -225 19 -168 46 -320
56 -320 13 0 3 114 -56 630 -24 210 -33 370 -13 235 4 -33 19 -145 33 -250 47
-365 85 -641 100 -721 8 -45 22 -167 30 -270 9 -104 27 -292 40 -419 60 -555
83 -905 62 -962 -10 -28 -70 -65 -99 -61 -22 3 -25 14 -50 166 -15 90 -45 329
-68 530 -22 202 -52 450 -66 552 -33 246 -41 322 -49 465 -3 66 -13 197 -20
290 -8 94 -22 269 -30 390 -9 121 -22 292 -30 380 -8 88 -15 176 -14 195 l1
35 9 -30 c5 -16 23 -172 39 -345 16 -173 43 -418 60 -545 35 -264 131 -1108
155 -1360 9 -93 21 -186 26 -205 18 -70 0 256 -36 645 -40 440 -42 460 -90
860 -19 160 -57 486 -85 725 -27 239 -52 448 -55 465 -3 18 -2 26 4 20 5 -6
21 -91 35 -190z m-2617 103 c-3 -8 -6 -5 -6 6 -1 11 2 17 5 13 3 -3 4 -12 1
-19z m2690 -310 c-3 -8 -6 -5 -6 6 -1 11 2 17 5 13 3 -3 4 -12 1 -19z m-2009
-1230 c21 -46 81 -189 132 -318 55 -138 149 -344 227 -499 102 -203 133 -274
133 -304 0 -23 -4 -36 -10 -32 -14 9 -131 208 -185 314 -24 49 -72 153 -105
231 -70 163 -145 316 -160 325 -29 18 1 -70 90 -260 23 -49 51 -115 62 -145
31 -81 180 -388 247 -510 l59 -105 4 -317 c1 -174 0 -320 -5 -324 -18 -18
-136 187 -336 586 l-168 335 -7 335 c-7 321 -17 558 -32 703 -9 91 6 87 54
-15z m1922 -58 c0 -5 -4 -10 -10 -10 -5 0 -10 5 -10 10 0 6 5 10 10 10 6 0 10
-4 10 -10z m-2620 -800 c0 -5 -4 -10 -10 -10 -5 0 -10 5 -10 10 0 6 5 10 10
10 6 0 10 -4 10 -10z m710 -285 c98 -271 319 -710 422 -835 56 -69 19 -85 -42
-18 -54 59 -137 202 -295 514 -124 243 -139 277 -143 332 -5 66 4 120 17 106
5 -5 23 -49 41 -99z m1957 43 c-3 -8 -6 -5 -6 6 -1 11 2 17 5 13 3 -3 4 -12 1
-19z m-2660 -30 c-3 -8 -6 -5 -6 6 -1 11 2 17 5 13 3 -3 4 -12 1 -19z m2723
-128 c0 -5 -4 -10 -10 -10 -5 0 -10 5 -10 10 0 6 5 10 10 10 6 0 10 -4 10 -10z
m-2052 -72 c5 -7 40 -79 76 -161 96 -215 139 -298 227 -435 44 -67 79 -124 79
-127 0 -3 -9 -5 -20 -5 -25 0 -103 109 -202 283 -40 70 -97 169 -126 219 -48
81 -54 98 -59 164 -6 73 1 90 25 62z m2102 -88 c0 -5 -9 -10 -20 -10 -11 0
-20 5 -20 10 0 6 9 10 20 10 11 0 20 -4 20 -10z m-60 -130 c0 -5 -9 -10 -21
-10 -11 0 -17 5 -14 10 3 6 13 10 21 10 8 0 14 -4 14 -10z m-2028 -82 c62
-142 123 -251 187 -336 39 -51 71 -97 71 -102 0 -16 -260 -13 -265 3 -2 6 -9
98 -15 202 -5 105 -13 211 -16 238 -8 63 8 61 38 -5z m2506 0 c-9 -29 -198
-67 -198 -40 0 10 129 50 168 51 23 1 32 -3 30 -11z m-388 -38 c0 -5 -16 -10
-36 -10 -21 0 -33 4 -29 10 3 6 19 10 36 10 16 0 29 -4 29 -10z m-40 -71 c0
-5 -11 -9 -25 -9 -26 0 -34 15 -12 23 16 5 37 -3 37 -14z m190 2 c0 -11 -25
-21 -56 -21 -23 0 -31 10 -17 23 10 10 73 8 73 -2z m288 3 c59 -8 67 -18 20
-28 -42 -8 -232 4 -221 15 18 17 115 23 201 13z m-563 -63 c3 -5 1 -12 -5 -16
-5 -3 -10 1 -10 9 0 18 6 21 15 7z m120 0 c3 -5 1 -12 -5 -16 -14 -9 -52 4
-45 16 8 12 42 12 50 0z m329 0 c9 -14 -19 -31 -59 -38 -49 -8 -44 16 6 34 42
15 47 15 53 4z m-136 -18 c-3 -19 -56 -30 -86 -18 -15 6 -15 8 2 21 11 8 35
14 54 14 26 0 33 -4 30 -17z m-308 -53 c0 -5 -7 -10 -15 -10 -8 0 -15 5 -15
10 0 6 7 10 15 10 8 0 15 -4 15 -10z m249 -9 c21 -14 -42 -24 -97 -16 -32 5
-41 9 -31 16 18 11 110 11 128 0z m-3647 -46 c0 -5 -5 -11 -11 -13 -6 -2 -11
4 -11 13 0 9 5 15 11 13 6 -2 11 -8 11 -13z m3198 -100 c-13 -16 -40 -20 -40
-7 0 14 12 22 33 22 16 0 17 -3 7 -15z m100 -10 c-7 -8 -19 -15 -27 -15 -13 0
-13 3 -3 15 7 8 19 15 27 15 13 0 13 -3 3 -15z m-234 -56 c9 -16 -12 -33 -31
-25 -14 5 -15 9 -5 21 15 18 26 19 36 4z m134 -14 c-13 -16 -40 -20 -40 -7 0
14 12 22 33 22 16 0 17 -3 7 -15z m115 5 c-3 -5 -13 -10 -21 -10 -8 0 -12 5
-9 10 3 6 13 10 21 10 8 0 12 -4 9 -10z m-1987 -36 c50 -3 92 -10 92 -15 0 -4
-24 -24 -52 -42 -29 -19 -96 -73 -150 -121 -53 -47 -100 -86 -104 -86 -4 0
-18 9 -30 21 -27 25 -44 18 -44 -19 0 -15 -13 -54 -28 -87 -51 -106 -106 -155
-175 -155 -21 0 -71 -19 -132 -50 -80 -41 -108 -50 -149 -50 -90 0 -123 48
-71 104 27 29 62 34 71 11 9 -24 41 -18 61 12 18 26 28 36 125 123 129 116
107 153 -28 45 -81 -64 -165 -98 -221 -89 -42 6 -58 -4 -65 -41 -4 -22 -39
-28 -45 -8 -11 31 101 97 196 116 55 12 62 16 105 71 49 63 59 91 29 78 -33
-13 -127 -64 -196 -105 -37 -22 -70 -37 -74 -34 -13 14 30 57 87 88 64 34 139
93 130 103 -4 3 -28 -6 -55 -19 -26 -14 -60 -25 -74 -25 l-26 1 22 17 c11 9
46 32 77 51 31 19 77 54 103 77 l48 42 240 -4 c132 -3 282 -7 333 -10z m1906
-45 c-7 -11 -34 -12 -34 -1 0 14 11 21 26 15 8 -3 11 -9 8 -14z m-2736 -27 c2
-7 -6 -12 -17 -12 -21 0 -27 11 -14 24 9 9 26 2 31 -12z m1830 -8 c91 -13 124
-14 169 -5 31 6 59 8 62 5 3 -4 2 -8 -4 -11 -34 -12 -35 -19 -10 -88 23 -67
33 -135 18 -135 -3 0 -15 8 -26 17 -18 17 -19 17 -17 -12 4 -52 -1 -61 -15
-30 -8 17 -14 44 -15 62 0 17 -4 35 -10 38 -11 7 -18 -18 -28 -109 -4 -41 -12
-71 -19 -73 -15 -5 -33 37 -33 78 0 30 -46 89 -68 89 -5 0 -11 -61 -14 -138
-2 -76 -7 -143 -11 -149 -10 -16 -67 7 -68 27 0 8 -2 62 -2 120 -2 110 -9 139
-32 120 -8 -7 -14 -60 -18 -178 -3 -92 -11 -187 -17 -212 -16 -64 -51 -87 -84
-54 -20 20 -20 68 0 210 16 107 13 184 -5 184 -5 0 -11 -18 -15 -40 -6 -40
-26 -47 -26 -11 0 22 -35 69 -45 60 -3 -4 1 -34 9 -67 21 -79 20 -92 -4 -92
-20 0 -21 -5 -19 -78 2 -43 -1 -84 -5 -91 -22 -35 -148 -65 -183 -43 -20 13
-45 83 -39 108 7 27 31 32 40 9 7 -19 60 -20 76 0 17 21 4 35 -34 35 -45 0
-48 7 -22 49 41 65 83 155 95 206 17 69 75 191 97 204 28 16 194 13 322 -5z
m-1968 -14 c0 -5 -22 -10 -49 -10 -28 0 -53 5 -56 10 -4 6 15 10 49 10 31 0
56 -4 56 -10z m2511 -15 c-1 -15 -24 -12 -29 3 -3 9 2 13 12 10 10 -1 17 -7
17 -13z m117 3 c-6 -17 -36 -34 -45 -24 -4 4 1 14 11 22 24 17 39 18 34 2z
m-1143 -28 c-3 -5 -13 -10 -21 -10 -8 0 -12 5 -9 10 3 6 13 10 21 10 8 0 12
-4 9 -10z m-1424 -15 c-1 -15 -24 -12 -29 3 -3 9 2 13 12 10 10 -1 17 -7 17
-13z m1152 8 c-7 -2 -19 -2 -25 0 -7 3 -2 5 12 5 14 0 19 -2 13 -5z m120 0
c-7 -2 -19 -2 -25 0 -7 3 -2 5 12 5 14 0 19 -2 13 -5z m1180 -48 c-4 -15 -36
-12 -41 3 -3 9 3 13 19 10 13 -1 23 -7 22 -13z m-1055 -11 c-10 -11 -46 -18
-111 -24 -53 -4 -101 -11 -107 -15 -13 -8 -100 3 -120 15 -28 17 3 25 118 31
232 11 238 11 220 -7z m-398 -19 c0 -10 -10 -15 -29 -15 -16 0 -34 7 -41 15
-11 13 -7 15 29 15 30 0 41 -4 41 -15z m1280 -26 c0 -5 -7 -9 -15 -9 -8 0 -15
7 -15 15 0 9 6 12 15 9 8 -4 15 -10 15 -15z m80 -9 c0 -5 -4 -10 -10 -10 -5 0
-10 5 -10 10 0 6 5 10 10 10 6 0 10 -4 10 -10z m-1380 -40 c13 -9 13 -11 0
-20 -22 -14 -115 4 -105 21 8 12 86 11 105 -1z m1300 -19 c0 -5 -7 -11 -15
-15 -15 -5 -20 5 -8 17 9 10 23 9 23 -2z m-252 -187 c-5 -25 -35 -41 -49 -27
-18 18 -3 43 26 43 19 0 26 -5 23 -16z m-168 -90 c0 -19 -19 -57 -34 -66 -14
-9 -36 10 -36 33 0 19 35 49 57 49 7 0 13 -7 13 -16z"/>
<path d="M3127 12603 c-16 -15 -4 -23 37 -23 49 0 76 7 76 21 0 10 -103 12
-113 2z"/>
<path d="M3391 12501 c3 -8 16 -21 29 -30 18 -12 22 -13 19 -2 -3 8 -16 21
-29 30 -18 12 -22 13 -19 2z"/>
<path d="M3518 12383 c7 -3 16 -2 19 1 4 3 -2 6 -13 5 -11 0 -14 -3 -6 -6z"/>
<path d="M3062 12303 c-20 -8 -3 -23 28 -23 33 0 48 15 24 24 -18 7 -33 7 -52
-1z"/>
<path d="M3600 12171 c0 -13 8 -48 17 -77 9 -30 13 -57 9 -61 -4 -4 -47 14
-96 40 -94 50 -170 81 -170 69 0 -4 65 -41 143 -82 152 -77 185 -84 173 -34
-12 45 -46 130 -61 150 -14 18 -14 18 -15 -5z"/>
<path d="M3240 12067 c77 -52 271 -159 277 -154 14 15 -35 49 -158 111 -131
67 -182 85 -119 43z"/>
<path d="M3170 12031 c0 -5 33 -25 73 -46 39 -21 100 -57 134 -81 60 -43 93
-55 93 -34 0 15 -77 68 -165 112 -86 44 -135 61 -135 49z"/>
<path d="M2267 10331 c-15 -63 -38 -198 -52 -300 -14 -102 -30 -208 -35 -234
-13 -62 -13 -188 0 -166 10 18 18 64 60 364 16 116 36 257 45 314 22 146 14
156 -18 22z"/>
<path d="M2201 10315 c-6 -42 -11 -84 -11 -93 1 -37 18 14 29 85 13 86 13 83
2 83 -5 0 -14 -34 -20 -75z"/>
<path d="M2338 10354 c-5 -4 -8 -23 -7 -43 0 -34 1 -34 10 -11 11 27 8 66 -3
54z"/>
<path d="M2305 10203 c-6 -18 -41 -272 -90 -658 -14 -110 -28 -213 -31 -230
-4 -20 -3 -27 4 -20 12 12 51 253 87 540 14 110 32 235 40 279 8 43 15 84 15
92 0 20 -17 17 -25 -3z"/>
<path d="M1837 10151 c-12 -60 -18 -216 -8 -200 9 14 31 158 31 206 0 33 -16
28 -23 -6z"/>
<path d="M2165 10108 c-33 -149 -105 -619 -131 -853 -8 -81 -24 -157 -41 -200
-8 -22 -17 -56 -18 -75 -2 -19 -13 -89 -24 -155 -25 -146 -125 -930 -145
-1145 -8 -85 -20 -231 -26 -325 -9 -145 -35 -454 -56 -672 -3 -37 -1 -70 6
-82 8 -16 7 -26 -5 -45 -16 -25 -34 -177 -35 -301 0 -108 18 -66 30 70 16 165
23 214 28 190 12 -59 20 -17 26 152 12 314 26 555 36 613 5 30 14 116 20 190
31 411 80 793 105 820 10 11 19 51 25 106 43 396 68 602 116 949 60 434 89
651 97 733 6 53 1 70 -8 30z"/>
<path d="M2170 9194 c0 -8 5 -12 10 -9 6 3 10 10 10 16 0 5 -4 9 -10 9 -5 0
-10 -7 -10 -16z"/>
<path d="M1907 8888 c-12 -66 -17 -154 -8 -127 10 30 25 159 18 159 -3 0 -7
-15 -10 -32z"/>
<path d="M2021 7144 c0 -11 3 -14 6 -6 3 7 2 16 -1 19 -3 4 -6 -2 -5 -13z"/>
<path d="M2028 7044 c-5 -4 -8 -39 -7 -78 1 -70 1 -70 10 -26 10 50 8 116 -3
104z"/>
<path d="M1962 6825 c-4 -38 -42 -730 -42 -775 0 -26 4 -40 9 -35 14 15 43
531 39 690 -2 77 -5 131 -6 120z"/>
<path d="M1646 6230 c-9 -48 -8 -60 9 -60 10 0 15 10 15 33 0 48 -16 66 -24
27z"/>
<path d="M1978 6165 c-13 -53 -22 -525 -10 -525 6 0 13 28 17 63 8 84 2 500
-7 462z"/>
<path d="M1633 6063 c-13 -90 -9 -1180 4 -1231 9 -33 8 -49 -2 -70 -9 -20 -14
-130 -19 -412 -3 -212 -9 -459 -13 -549 -4 -111 -3 -162 4 -158 6 4 13 85 17
194 9 239 24 499 33 583 l7 65 7 -70 c4 -38 8 -108 9 -155 3 -70 5 -57 10 70
11 248 20 1598 11 1570 -5 -14 -9 -100 -10 -191 -1 -178 -8 -262 -22 -253 -5
3 -9 43 -9 89 0 46 -5 96 -10 110 -7 19 -7 39 0 64 12 45 25 338 16 374 -11
44 -24 31 -33 -30z m47 -819 c0 -13 -4 -24 -10 -24 -5 0 -10 14 -10 31 0 17 4
28 10 24 6 -3 10 -17 10 -31z m-13 -136 c-3 -8 -6 -5 -6 6 -1 11 2 17 5 13 3
-3 4 -12 1 -19z"/>
<path d="M2041 5971 c-1 -40 2 -52 10 -44 7 7 8 24 1 54 l-10 44 -1 -54z"/>
<path d="M2036 5853 c-4 -13 -3 -31 3 -40 9 -17 10 -17 17 0 3 10 2 28 -3 40
l-10 22 -7 -22z"/>
<path d="M1907 5803 c-13 -65 -18 -126 -42 -483 -51 -778 -82 -1742 -56 -1714
5 5 14 99 20 209 18 340 40 788 50 1050 6 138 15 374 22 525 6 151 14 309 19
350 7 73 -2 121 -13 63z"/>
<path d="M2026 5698 c-10 -38 -7 -58 9 -58 16 0 30 42 21 65 -8 22 -23 18 -30
-7z"/>
<path d="M1957 5537 c-7 -56 -18 -397 -42 -1247 -25 -873 -28 -1025 -20 -1018
17 16 36 421 60 1293 8 297 17 646 21 776 4 153 3 238 -3 242 -6 4 -13 -15
-16 -46z"/>
<path d="M2027 5563 c-10 -10 -8 -51 3 -58 13 -8 25 44 13 56 -5 5 -12 6 -16
2z"/>
<path d="M2020 5390 c0 -51 15 -68 25 -27 6 22 -9 77 -20 77 -3 0 -5 -22 -5
-50z"/>
<path d="M1558 5350 c-20 -121 -30 -549 -18 -790 10 -188 10 -294 1 -455 -6
-115 -20 -374 -31 -575 -21 -376 -46 -733 -56 -804 -5 -30 -4 -38 5 -31 19 19
45 243 87 760 13 155 17 384 21 1025 3 454 3 845 1 870 l-3 45 -7 -45z"/>
<path d="M1351 4510 c-1 -8 -8 -82 -16 -165 -24 -244 -45 -599 -44 -739 0 -72
2 -126 4 -121 14 39 71 987 62 1023 -3 12 -5 13 -6 2z"/>
<path d="M3497 7830 c-10 -67 -25 -458 -37 -980 -6 -256 -17 -697 -26 -980
-24 -838 -29 -1330 -14 -1540 7 -101 17 -196 22 -210 10 -24 10 -25 18 -4 5
12 3 73 -3 135 -15 157 -15 703 1 1064 7 165 17 595 22 955 5 360 15 844 21
1075 6 231 9 445 7 475 l-3 55 -8 -45z"/>
<path d="M3538 7386 c-5 -27 -8 -110 -9 -185 0 -75 -4 -176 -8 -226 -9 -94 -2
-141 15 -114 9 14 19 440 12 529 l-3 45 -7 -49z"/>
<path d="M3791 7145 c-1 -159 -4 -335 -7 -390 -4 -84 -3 -97 8 -80 16 25 25
658 10 720 -7 29 -10 -40 -11 -250z"/>
<path d="M4056 7252 c-22 -194 -37 -1382 -16 -1232 22 156 51 1272 33 1283 -7
4 -13 -15 -17 -51z"/>
<path d="M3935 7070 c-17 -28 -32 -374 -16 -384 13 -8 21 60 28 237 6 146 4
172 -12 147z"/>
<path d="M3532 6665 c0 -16 2 -22 5 -12 2 9 2 23 0 30 -3 6 -5 -1 -5 -18z"/>
<path d="M3531 6474 c0 -11 3 -14 6 -6 3 7 2 16 -1 19 -3 4 -6 -2 -5 -13z"/>
<path d="M4117 6396 c-10 -26 -9 -64 3 -71 14 -9 24 43 13 67 -9 20 -10 20
-16 4z"/>
<path d="M3997 4921 c-4 -35 -8 -215 -8 -400 -1 -185 -5 -322 -9 -306 -4 17
-9 55 -10 85 -1 30 -5 66 -10 80 l-7 25 -8 -27 c-14 -52 24 -1533 41 -1595 17
-63 24 16 25 290 2 279 3 292 11 167 5 -74 13 -139 19 -145 17 -17 -11 1753
-29 1850 -8 40 -8 40 -15 -24z m3 -839 c0 -9 -5 -24 -10 -32 -7 -11 -10 -5
-10 23 0 23 4 36 10 32 6 -3 10 -14 10 -23z m10 -172 c0 -10 -4 -21 -9 -24
-12 -8 -22 20 -15 39 8 19 24 9 24 -15z m10 -451 c0 -10 -4 -19 -10 -19 -5 0
-10 12 -10 26 0 14 4 23 10 19 6 -3 10 -15 10 -26z"/>
<path d="M3811 4744 c0 -11 3 -14 6 -6 3 7 2 16 -1 19 -3 4 -6 -2 -5 -13z"/>
<path d="M3791 4584 c0 -11 3 -14 6 -6 3 7 2 16 -1 19 -3 4 -6 -2 -5 -13z"/>
<path d="M3840 4518 c0 -7 -7 -89 -15 -183 -14 -164 -20 -404 -10 -393 6 6 31
293 40 466 5 85 3 122 -4 122 -6 0 -11 -6 -11 -12z"/>
<path d="M3780 4435 c0 -8 5 -15 10 -15 6 0 10 7 10 15 0 8 -4 15 -10 15 -5 0
-10 -7 -10 -15z"/>
<path d="M4421 4424 c0 -11 3 -14 6 -6 3 7 2 16 -1 19 -3 4 -6 -2 -5 -13z"/>
<path d="M3768 4310 c-4 -14 -9 -226 -12 -470 -3 -258 -1 -422 4 -390 4 30 8
91 9 136 1 44 6 129 12 188 7 69 7 111 1 119 -6 7 -7 44 -2 97 11 104 11 239
1 300 -6 39 -8 42 -13 20z"/>
<path d="M4422 4240 c0 -14 2 -19 5 -12 2 6 2 18 0 25 -3 6 -5 1 -5 -13z"/>
<path d="M4433 3865 c4 -165 20 -507 37 -760 17 -253 33 -516 36 -585 6 -141
13 -175 25 -115 10 53 -19 821 -37 990 -3 28 -16 209 -29 403 -13 195 -27 357
-31 360 -3 4 -4 -128 -1 -293z"/>
<path d="M3469 3970 c-1 -3 -6 -194 -11 -425 -5 -231 -10 -449 -11 -485 -1
-36 2 -96 7 -134 7 -59 10 -67 19 -50 16 27 24 1071 8 1087 -6 6 -12 9 -12 7z"/>
<path d="M3811 3874 c0 -11 3 -14 6 -6 3 7 2 16 -1 19 -3 4 -6 -2 -5 -13z"/>
<path d="M3411 3750 c0 -58 4 -114 9 -125 6 -13 9 19 9 90 0 61 -4 117 -9 125
-7 10 -10 -19 -9 -90z"/>
<path d="M3901 3693 c-1 -70 3 -113 9 -113 12 0 12 149 0 195 -5 20 -8 -9 -9
-82z"/>
<path d="M3422 3475 c0 -16 2 -22 5 -12 2 9 2 23 0 30 -3 6 -5 -1 -5 -18z"/>
<path d="M3911 3240 c0 -65 2 -90 9 -80 11 18 11 114 0 150 -5 17 -8 -7 -9
-70z"/>
<path d="M3838 3070 c-12 -44 -21 -746 -13 -1045 13 -504 25 -283 23 414 -2
361 -6 645 -10 631z"/>
<path d="M3900 3043 c0 -21 5 -45 10 -53 9 -13 11 -13 20 0 18 28 7 90 -16 90
-10 0 -14 -12 -14 -37z"/>
<path d="M3907 2866 c-9 -104 -8 -1845 2 -1871 6 -15 9 -11 14 20 9 51 7 1721
-2 1840 l-6 90 -8 -79z"/>
<path d="M4040 2850 c0 -41 5 -82 10 -90 7 -10 10 8 10 60 0 41 -5 82 -10 90
-7 10 -10 -8 -10 -60z"/>
<path d="M3990 2538 c0 -173 8 -265 21 -233 10 26 -1 367 -12 380 -5 5 -9 -57
-9 -147z"/>
<path d="M4052 2610 c0 -14 2 -19 5 -12 2 6 2 18 0 25 -3 6 -5 1 -5 -13z"/>
<path d="M4266 2544 c-10 -25 -7 -82 4 -89 6 -4 10 15 10 49 0 58 -3 68 -14
40z"/>
<path d="M4260 2293 c0 -5 5 -15 10 -23 8 -12 10 -11 10 8 0 12 -4 22 -10 22
-5 0 -10 -3 -10 -7z"/>
<path d="M4012 2020 c0 -118 3 -224 8 -235 10 -24 11 167 0 335 -6 102 -7 91
-8 -100z"/>
<path d="M4271 2174 c0 -11 3 -14 6 -6 3 7 2 16 -1 19 -3 4 -6 -2 -5 -13z"/>
<path d="M4062 2155 c0 -16 2 -22 5 -12 2 9 2 23 0 30 -3 6 -5 -1 -5 -18z"/>
<path d="M4274 1985 c0 -55 1 -76 3 -47 2 29 2 74 0 100 -2 26 -3 2 -3 -53z"/>
<path d="M4072 1920 c0 -14 2 -19 5 -12 2 6 2 18 0 25 -3 6 -5 1 -5 -13z"/>
<path d="M4071 1824 c0 -11 3 -14 6 -6 3 7 2 16 -1 19 -3 4 -6 -2 -5 -13z"/>
<path d="M4078 1693 c6 -81 21 -103 22 -31 0 58 -7 88 -19 88 -4 0 -6 -26 -3
-57z"/>
<path d="M4022 1340 c2 -222 6 -302 16 -312 9 -10 12 28 12 188 0 239 -10 424
-22 424 -5 0 -8 -126 -6 -300z"/>
<path d="M3011 10124 c0 -11 3 -14 6 -6 3 7 2 16 -1 19 -3 4 -6 -2 -5 -13z"/>
<path d="M2700 9678 c0 -32 19 -78 33 -78 13 0 1 56 -18 83 -15 21 -15 21 -15
-5z"/>
<path d="M4045 9230 c-9 -10 -75 -60 -146 -110 -71 -51 -129 -94 -129 -96 0
-3 31 11 68 31 106 56 273 195 233 195 -4 0 -16 -9 -26 -20z"/>
<path d="M623 9523 c-13 -93 -10 -320 5 -335 9 -10 12 28 12 190 0 111 -2 202
-4 202 -3 0 -8 -26 -13 -57z"/>
<path d="M698 9567 c-5 -10 -8 -46 -7 -80 l1 -62 9 45 c11 54 8 125 -3 97z"/>
<path d="M2558 8113 c-32 -8 -19 -21 32 -32 50 -11 80 -7 80 10 0 16 -79 31
-112 22z"/>
<path d="M2302 8028 c3 -7 17 -14 32 -16 20 -3 27 0 24 10 -3 7 -17 14 -32 16
-20 3 -27 0 -24 -10z"/>
<path d="M2454 8025 c-10 -24 -1 -33 24 -24 12 5 22 15 22 24 0 19 -39 20 -46
0z"/>
<path d="M3210 7625 c0 -25 28 -85 39 -85 16 0 13 16 -9 60 -22 43 -30 49 -30
25z"/>
<path d="M2730 7491 c0 -11 39 -59 40 -49 0 14 -23 58 -32 58 -4 0 -8 -4 -8
-9z"/>
<path d="M2786 7395 c4 -8 8 -15 10 -15 2 0 4 7 4 15 0 8 -4 15 -10 15 -5 0
-7 -7 -4 -15z"/>
<path d="M2810 7355 c0 -13 52 -107 56 -102 6 5 -43 107 -51 107 -3 0 -5 -2
-5 -5z"/>
<path d="M2980 7241 c0 -25 242 -471 256 -471 11 0 -11 79 -37 139 -60 134
-218 373 -219 332z"/>
<path d="M2764 7216 c9 -37 127 -299 220 -489 90 -182 195 -369 227 -402 50
-52 7 50 -172 403 -233 459 -296 570 -275 488z"/>
<path d="M3190 6653 c0 -18 22 -63 32 -63 4 0 8 6 8 14 0 17 -39 66 -40 49z"/>
<path d="M2780 6602 c0 -16 27 -45 39 -41 8 3 7 11 -4 27 -16 22 -35 30 -35
14z"/>
<path d="M2410 6575 c0 -70 4 -115 10 -115 6 0 10 45 10 115 0 70 -4 115 -10
115 -6 0 -10 -45 -10 -115z"/>
<path d="M2410 6354 c0 -34 4 -53 10 -49 6 3 10 28 10 56 0 27 -4 49 -10 49
-5 0 -10 -25 -10 -56z"/>
<path d="M2406 6218 c-10 -39 -7 -326 4 -333 7 -4 10 57 10 174 0 100 -2 181
-4 181 -2 0 -6 -10 -10 -22z"/>
<path d="M2407 5796 c-4 -10 -5 -21 -2 -24 9 -9 17 6 13 25 -3 17 -4 17 -11
-1z"/>
<path d="M2387 5613 c-10 -63 -17 -257 -27 -703 -5 -234 -17 -586 -27 -782
-15 -321 -15 -383 2 -366 24 23 75 1085 75 1556 0 301 -8 397 -23 295z"/>
<path d="M2305 3539 c-10 -15 3 -25 16 -12 7 7 7 13 1 17 -6 3 -14 1 -17 -5z"/>
<path d="M2730 5368 c0 -8 13 -34 28 -59 15 -24 41 -78 57 -119 15 -41 30 -69
33 -61 5 16 -20 85 -64 173 -33 66 -54 91 -54 66z"/>
<path d="M2865 5070 c14 -44 36 -92 41 -88 6 7 -26 97 -38 104 -6 4 -8 -2 -3
-16z"/>
<path d="M2660 5018 c0 -29 -2 -98 -5 -153 -4 -72 -2 -92 5 -71 15 48 25 276
11 276 -7 0 -11 -20 -11 -52z"/>
<path d="M2924 4908 c22 -70 48 -128 57 -128 5 0 9 2 9 3 0 8 -38 113 -50 140
-20 42 -31 32 -16 -15z"/>
<path d="M3010 4691 c0 -53 152 -402 191 -436 10 -10 19 -15 19 -12 0 23 -168
412 -195 450 l-15 21 0 -23z"/>
<path d="M2668 4348 c14 -34 18 -39 20 -21 4 24 -14 63 -28 63 -4 0 -1 -19 8
-42z"/>
<path d="M2237 7136 c-8 -30 -27 -951 -25 -1216 1 -131 1 -138 9 -70 38 362
51 1419 16 1286z"/>
<path d="M4822 3000 c0 -14 2 -19 5 -12 2 6 2 18 0 25 -3 6 -5 1 -5 -13z"/>
<path d="M1795 261 c-3 -5 -1 -12 5 -16 5 -3 10 1 10 9 0 18 -6 21 -15 7z"/>
<path d="M3413 143 c-18 -7 -16 -43 2 -43 18 0 31 28 19 39 -5 5 -15 6 -21 4z"/>
<path d="M2855 11831 c-22 -10 -58 -35 -79 -55 -57 -53 -39 -63 61 -37 44 11
128 25 187 30 102 10 149 22 130 33 -5 3 -44 15 -87 27 -95 26 -159 26 -212 2z
m82 -7 c-3 -3 -12 -4 -19 -1 -8 3 -5 6 6 6 11 1 17 -2 13 -5z"/>
<path d="M2768 11634 c-55 -17 -58 -25 -23 -48 14 -9 25 -25 25 -36 0 -21 10
-29 60 -48 59 -23 74 -21 80 12 6 37 41 48 128 40 61 -7 62 -6 62 17 0 37 -27
69 -58 69 -15 0 -58 -9 -96 -20 -70 -20 -86 -19 -86 5 0 12 -22 26 -38 24 -4
0 -28 -7 -54 -15z"/>
<path d="M5243 2413 c-13 -2 -23 -9 -23 -14 0 -10 170 -12 219 -3 17 4 31 10
31 15 0 9 -184 10 -227 2z"/>
<path d="M5530 2411 c0 -13 54 -21 134 -20 70 1 71 1 36 14 -39 15 -170 20
-170 6z"/>
<path d="M5105 2179 c-4 -6 -4 -13 0 -17 3 -4 83 -6 176 -5 183 1 244 15 113
26 -121 11 -282 8 -289 -4z"/>
<path d="M5781 2166 c-54 -9 -78 -18 -90 -34 -9 -12 -41 -30 -71 -41 -30 -10
-91 -36 -135 -56 l-79 -36 -98 10 c-135 15 -201 14 -196 -1 3 -9 43 -16 117
-22 91 -7 111 -12 107 -23 -8 -19 -4 -18 254 84 209 83 290 118 290 128 0 6
-9 5 -99 -9z"/>
<path d="M5610 2160 c20 -13 63 -13 55 0 -3 6 -21 10 -38 10 -24 0 -28 -3 -17
-10z"/>
<path d="M5542 1991 c-22 -14 15 -23 65 -15 59 9 55 -9 -9 -40 -38 -18 -47
-25 -30 -26 25 0 179 57 187 69 2 5 -30 11 -72 15 -99 8 -125 8 -141 -3z"/>
<path d="M5241 1923 c-49 -24 -21 -28 31 -4 28 12 36 20 23 20 -11 0 -35 -7
-54 -16z"/>
<path d="M5450 1883 c-38 -17 -229 -24 -265 -10 -21 8 -66 -15 -53 -28 3 -4
35 -9 70 -11 120 -9 138 -22 66 -44 -63 -18 -135 -57 -142 -75 -10 -27 2 -35
52 -35 43 0 84 -13 72 -23 -3 -2 -26 -11 -51 -21 -26 -9 -55 -26 -64 -36 -17
-19 -17 -20 2 -20 11 0 67 22 125 49 57 27 116 52 131 55 15 3 38 8 52 11 14
3 25 10 25 15 0 5 -37 6 -87 4 -91 -6 -192 5 -196 20 -1 4 32 21 73 36 89 32
247 108 256 121 8 14 -26 9 -66 -8z"/>
<path d="M5725 1840 c3 -5 46 -10 96 -10 53 0 89 4 89 10 0 6 -39 10 -96 10
-61 0 -93 -4 -89 -10z"/>
<path d="M5556 1683 c-22 -3 -52 -13 -66 -23 -41 -29 -218 -97 -284 -109 -68
-13 -73 -15 -57 -35 8 -10 9 -16 1 -21 -15 -9 -12 -25 4 -25 8 0 31 10 52 22
26 15 59 23 117 26 79 5 80 5 57 22 l-24 18 71 35 c96 49 174 67 284 67 107 0
171 9 163 21 -5 9 -239 10 -318 2z"/>
<path d="M5630 1430 c-78 -30 -125 -37 -135 -20 -11 18 -25 10 -25 -14 0 -33
20 -38 85 -21 52 14 175 70 175 80 0 10 -27 3 -100 -25z"/>
<path d="M5706 1381 c-14 -23 61 -28 90 -6 17 13 15 14 -33 15 -28 0 -54 -4
-57 -9z"/>
<path d="M5590 1309 c-30 -5 -100 -6 -155 -3 -98 5 -135 -2 -121 -25 9 -14
128 -14 256 -1 115 12 138 18 119 31 -16 10 -23 10 -99 -2z"/>
</g>
</svg>
