<?xml version="1.0" standalone="no"?>
<!DOCTYPE svg PUBLIC "-//W3C//DTD SVG 20010904//EN"
 "http://www.w3.org/TR/2001/REC-SVG-20010904/DTD/svg10.dtd">
<svg version="1.0" xmlns="http://www.w3.org/2000/svg"
 width="1280.000000pt" height="640.000000pt" viewBox="0 0 1280.000000 640.000000"
 preserveAspectRatio="xMidYMid meet">
<metadata>
Created by potrace 1.15, written by Peter Selinger 2001-2017
</metadata>
<g transform="translate(0.000000,640.000000) scale(0.100000,-0.100000)"
fill="#137752" stroke="none">
<path d="M12055 5779 c-163 -183 -326 -359 -333 -359 -4 0 -17 35 -30 78 -31
104 -95 282 -102 282 -3 0 -39 -67 -79 -148 -66 -132 -73 -152 -67 -187 4 -22
11 -95 16 -163 l9 -123 -321 -320 c-177 -175 -322 -318 -323 -316 -1 1 -12
119 -24 262 -12 143 -24 280 -27 305 l-6 45 45 -73 44 -73 7 32 c11 58 6 120
-19 220 -41 159 -116 391 -167 508 l-19 44 -75 -158 c-66 -142 -73 -162 -65
-189 6 -17 19 -139 30 -271 12 -132 23 -265 27 -295 l6 -54 -69 64 c-71 68
-497 441 -547 481 l-29 23 7 -194 8 -194 55 -60 c30 -34 85 -107 121 -164 134
-205 276 -419 334 -500 60 -82 60 -83 42 -105 -11 -12 -91 -98 -179 -192 -88
-93 -223 -237 -300 -319 -103 -109 -141 -144 -142 -130 -2 10 -21 255 -43 544
-22 289 -50 637 -61 774 -11 137 -18 251 -15 253 2 3 19 -23 38 -56 18 -33 36
-61 39 -61 4 0 10 30 14 68 5 59 1 86 -33 222 -42 163 -122 411 -152 469 l-17
34 -76 -157 c-65 -134 -75 -161 -66 -183 5 -14 23 -177 39 -362 45 -516 107
-1220 130 -1474 11 -125 20 -242 20 -260 -1 -27 -19 -52 -111 -152 -61 -66
-188 -205 -282 -308 l-172 -189 -55 59 c-235 250 -734 806 -753 839 -4 7 -21
249 -37 536 -16 288 -34 593 -40 678 -6 85 -13 191 -16 235 l-5 80 35 -60 c19
-33 39 -67 44 -75 7 -11 12 8 17 62 7 70 4 91 -35 245 -64 256 -145 492 -163
473 -3 -3 -37 -69 -76 -148 l-72 -143 10 -57 c6 -31 17 -176 26 -322 8 -146
26 -455 40 -688 15 -233 25 -442 23 -465 l-3 -42 -111 150 c-207 281 -311 432
-302 440 3 3 29 -6 59 -19 92 -41 99 -42 99 -9 -1 87 -131 239 -365 425 -72
57 -229 168 -237 168 -3 0 -9 -83 -13 -184 l-7 -185 62 -73 c90 -108 179 -236
267 -383 146 -245 218 -345 456 -632 118 -144 126 -155 131 -205 11 -101 106
-1734 116 -1983 5 -137 10 -251 10 -252 0 -2 4 -3 8 -3 10 0 14 13 78 220 l44
145 11 265 c12 274 7 489 -26 1109 -8 151 -14 276 -12 277 2 2 68 -69 148
-158 79 -89 219 -240 311 -335 l167 -173 -63 -83 c-194 -252 -273 -438 -297
-706 -13 -148 -6 -199 34 -253 l31 -43 2 -150 c1 -91 9 -189 19 -250 10 -55
18 -108 17 -117 0 -10 3 -18 9 -18 5 0 9 -7 9 -16 0 -37 79 -182 130 -237 61
-67 116 -102 203 -129 83 -26 129 -13 203 55 73 66 114 155 158 338 86 360
205 563 383 653 64 32 94 14 114 -69 49 -210 102 -326 193 -423 103 -110 228
-154 379 -133 148 21 272 84 370 190 133 144 138 172 140 696 1 337 -3 462
-21 700 -12 160 -38 497 -58 749 -19 252 -33 463 -32 468 4 11 500 -489 624
-628 l81 -90 7 -135 c4 -74 18 -314 32 -534 36 -597 54 -937 54 -1062 0 -114
11 -148 31 -96 6 15 33 100 60 188 l50 160 6 355 c4 220 1 450 -6 604 -7 136
-10 250 -8 253 12 12 341 -403 331 -418 -3 -5 1 -9 8 -9 7 0 34 -30 59 -68
104 -151 186 -334 228 -507 12 -49 26 -105 31 -124 8 -31 5 -41 -38 -105 -152
-230 -577 -547 -1075 -801 -75 -38 -94 -52 -85 -62 15 -18 49 -16 164 7 349
72 640 192 840 348 139 109 210 197 294 367 106 212 156 384 197 675 26 187
24 679 -5 1030 -19 240 -31 400 -62 855 -20 302 -60 987 -60 1028 l1 42 25
-47 c13 -27 28 -48 33 -48 17 0 24 112 12 175 -30 144 -200 745 -211 745 -3 0
-38 -79 -78 -175 l-72 -176 25 -60 c23 -58 27 -95 65 -673 66 -998 108 -1619
136 -2006 16 -212 27 -457 28 -585 1 -201 -1 -228 -23 -310 -19 -75 -102 -275
-85 -208 29 122 31 242 4 374 -26 125 -58 215 -127 354 -109 219 -252 412
-564 761 -21 22 -16 -37 -64 839 -28 510 -52 922 -63 1062 -4 50 -4 89 0 87 4
-3 22 -32 39 -65 18 -33 36 -56 40 -52 12 12 15 129 5 188 l-8 50 102 95 c56
51 125 125 152 164 96 136 154 282 146 372 l-3 36 -110 -123z m-524 -1672 c22
-379 39 -693 37 -698 -3 -10 -502 533 -636 691 -74 88 -80 99 -83 146 -5 61
-37 23 370 443 l256 265 8 -80 c4 -43 25 -389 48 -767z m-985 637 c39 -22 41
-25 48 -85 3 -34 6 -76 6 -93 0 -26 -2 -28 -14 -16 -24 26 -146 211 -146 221
0 16 59 1 106 -27z m104 -739 c0 -11 9 -124 20 -250 80 -930 171 -2017 181
-2152 10 -132 9 -165 -1 -178 -19 -23 -134 -85 -209 -114 -55 -20 -84 -25
-176 -25 -95 -1 -116 2 -156 22 -100 50 -169 157 -225 352 -48 168 -97 250
-160 266 -68 17 -174 -39 -289 -153 -82 -81 -134 -158 -195 -287 -57 -119 -67
-149 -119 -343 -67 -252 -94 -307 -173 -356 -118 -73 -217 -27 -302 141 -48
96 -94 262 -114 418 l-8 61 80 1 c138 0 288 54 413 145 176 130 266 360 233
596 -19 137 -77 275 -160 381 l-28 35 147 155 c80 85 184 197 231 248 59 64
86 88 87 75 0 -10 6 -66 13 -125 7 -69 10 -238 8 -476 l-3 -369 34 49 c89 134
143 303 162 515 10 112 9 155 -10 346 -12 120 -21 233 -21 252 0 29 23 59 182
237 100 111 245 272 322 357 78 85 156 172 175 194 32 37 35 38 48 21 7 -10
13 -27 13 -39z m-1493 -1723 c118 -157 165 -252 145 -296 -40 -88 -353 -226
-485 -213 -93 8 -98 58 -22 189 76 131 274 398 294 398 5 0 36 -35 68 -78z"/>
<path d="M10319 2859 c-18 -18 -20 -29 -15 -67 3 -25 11 -51 17 -58 7 -9 6
-19 -5 -36 -22 -34 -29 -98 -17 -146 9 -33 16 -42 34 -42 43 0 52 -15 29 -48
-68 -95 -288 -263 -527 -402 l-90 -52 55 5 c222 23 547 235 641 419 11 21 22
38 25 38 2 0 27 -12 55 -26 67 -33 99 -29 121 16 43 86 7 202 -99 319 -84 93
-178 126 -224 80z m101 -191 c21 -23 26 -54 10 -78 -8 -13 -14 -12 -47 5 -41
22 -45 44 -16 78 21 22 28 22 53 -5z m125 -41 c30 -29 55 -59 55 -65 0 -13
-58 -16 -97 -6 -18 5 -22 14 -25 65 -1 32 0 59 5 59 4 0 32 -24 62 -53z"/>
<path d="M1346 5661 l-77 -153 11 -51 c5 -29 28 -317 50 -642 22 -324 43 -630
46 -679 l7 -89 -39 7 c-65 11 -159 63 -204 112 -79 86 -119 220 -106 361 8 83
48 289 100 512 36 155 52 296 37 320 -17 26 -55 -3 -123 -94 -80 -106 -136
-203 -198 -342 -84 -189 -117 -300 -175 -583 -20 -96 -48 -209 -62 -252 -45
-137 -123 -200 -227 -182 -124 20 -198 115 -233 296 -19 102 -13 419 12 572 8
54 13 101 11 104 -12 12 -34 -9 -40 -40 -118 -575 -64 -977 143 -1083 109 -55
198 -42 277 39 90 92 144 238 189 510 53 316 129 520 233 629 20 20 40 37 44
37 17 0 7 -91 -22 -207 -63 -255 -75 -414 -45 -588 47 -271 180 -419 403 -450
49 -6 52 -9 52 -36 0 -15 22 -351 50 -746 44 -649 69 -1070 70 -1193 1 -41 2
-43 15 -26 8 10 37 88 65 172 l52 154 9 237 c11 255 6 419 -34 1106 l-22 367
62 40 c62 41 133 112 184 186 71 104 177 361 195 474 4 22 9 40 13 40 3 0 16
-37 29 -81 27 -99 85 -225 140 -307 138 -202 366 -281 549 -190 54 27 135 113
167 177 63 125 90 250 90 411 0 161 -10 205 -135 578 -56 167 -99 306 -96 308
8 8 48 -14 78 -43 l26 -24 6 27 c10 52 -155 348 -230 415 l-36 31 -13 -23
c-22 -39 -74 -213 -76 -250 -1 -51 187 -657 308 -991 35 -97 64 -187 64 -199
0 -14 -19 -41 -50 -70 -63 -62 -160 -95 -252 -86 -144 13 -294 131 -367 289
-53 114 -65 172 -101 487 -17 151 -40 323 -51 382 -18 100 -91 365 -105 378
-22 22 -91 -155 -101 -259 -4 -43 1 -76 26 -155 17 -55 37 -140 46 -190 20
-118 38 -385 30 -455 -32 -290 -141 -486 -319 -575 -38 -19 -75 -35 -82 -35
-17 0 -21 29 -34 250 -13 223 -47 712 -55 795 l-6 60 36 -62 c20 -34 40 -65
45 -68 12 -8 24 98 16 148 -20 124 -142 542 -181 617 -12 23 -16 17 -89 -129z"/>
<path d="M7377 5775 c-39 -40 -135 -225 -168 -325 -12 -36 -24 -101 -27 -144
-5 -90 9 -130 58 -159 39 -23 111 -22 142 2 52 41 120 212 101 254 -9 19 -11
17 -34 -24 -28 -51 -66 -73 -110 -64 -87 19 -75 158 37 394 24 52 42 96 40 98
-2 2 -20 -12 -39 -32z"/>
<path d="M3136 5644 l-69 -155 12 -52 c6 -29 36 -306 66 -617 123 -1266 165
-1697 171 -1742 l6 -48 -51 0 c-90 0 -153 38 -186 111 -16 35 -17 46 -6 107
37 196 -30 187 -260 -34 -166 -160 -249 -214 -249 -160 0 27 -104 184 -158
239 -67 68 -116 99 -195 122 -70 20 -103 15 -185 -26 -160 -79 -273 -301 -275
-539 -1 -92 11 -143 50 -202 86 -129 317 -155 595 -66 37 12 70 19 74 16 13
-13 54 -140 54 -166 0 -38 -123 -177 -271 -308 -307 -272 -682 -516 -1168
-759 -104 -52 -136 -64 -142 -53 -18 27 -61 171 -74 246 -17 92 -19 353 -5
472 25 196 93 472 126 505 9 9 14 18 11 21 -6 6 43 126 87 213 41 79 8 57 -36
-25 -49 -92 -196 -486 -246 -661 -80 -280 -107 -464 -98 -683 3 -85 7 -166 8
-180 3 -22 -7 -28 -112 -73 -63 -27 -202 -82 -309 -123 -107 -41 -196 -76
-199 -79 -3 -3 -3 -8 1 -11 7 -8 462 13 604 27 l102 10 88 -89 c72 -73 103
-97 173 -131 111 -54 218 -80 361 -88 135 -7 228 5 414 52 330 83 673 256 955
482 265 211 588 602 671 810 39 100 87 286 95 372 4 37 1 151 -6 254 l-12 187
32 41 c18 22 51 73 74 114 l42 73 24 -45 c13 -24 46 -64 73 -89 114 -102 274
-98 382 10 127 127 179 360 141 641 -9 66 -20 134 -24 150 l-9 30 -20 -40
c-11 -22 -42 -91 -68 -154 l-48 -114 27 -81 c14 -45 26 -86 26 -92 0 -33 -176
-62 -263 -44 -99 20 -132 74 -103 165 28 91 18 135 -32 135 -37 0 -77 -54
-152 -205 -59 -121 -111 -199 -123 -184 -2 2 -16 150 -31 329 -22 265 -25 326
-14 333 7 5 137 84 288 178 151 93 285 180 297 194 22 25 47 97 41 116 -2 7
-153 -85 -527 -321 -32 -20 -54 -46 -78 -90 -18 -34 -35 -56 -37 -49 -2 8 -12
100 -21 204 -22 248 -82 848 -99 995 -8 63 -13 116 -12 118 2 1 21 -27 43 -63
22 -36 43 -62 46 -58 15 14 6 151 -13 223 -45 163 -177 530 -198 552 -4 3 -38
-63 -76 -148z m-960 -2634 c63 -31 123 -84 110 -97 -13 -13 -248 -8 -288 5
-68 24 -74 63 -15 101 48 31 120 28 193 -9z m837 -222 c56 -96 125 -133 237
-125 41 2 82 6 90 8 12 3 18 -35 36 -216 12 -121 20 -231 17 -245 -18 -80
-121 -211 -332 -420 -331 -329 -663 -540 -1051 -670 -302 -101 -634 -129 -785
-65 l-36 14 137 71 c307 159 589 346 824 546 111 94 302 291 368 379 91 122
140 293 149 517 l6 136 62 50 c34 28 95 86 136 131 l73 80 21 -73 c11 -39 33
-93 48 -118z"/>
<path d="M6762 5763 c-17 -33 -63 -173 -71 -220 -8 -40 -4 -64 24 -163 74
-253 249 -789 321 -979 14 -37 22 -76 19 -88 -10 -40 -63 -89 -127 -119 -52
-23 -77 -28 -143 -29 -69 0 -89 4 -145 31 -82 40 -139 85 -189 152 -92 121
-122 225 -156 540 -42 382 -63 498 -127 710 -24 78 -35 102 -47 100 -20 -4
-64 -119 -85 -220 l-16 -77 34 -108 c57 -182 70 -280 71 -528 0 -253 -8 -299
-81 -452 -94 -197 -238 -293 -439 -293 -303 1 -472 179 -452 478 6 92 44 289
102 531 34 142 50 300 32 317 -16 17 -64 -23 -125 -106 -169 -226 -284 -505
-361 -880 -47 -227 -60 -276 -91 -348 -52 -119 -164 -160 -281 -101 -72 36
-127 128 -156 261 -28 128 -16 472 23 661 5 22 2 27 -14 27 -17 0 -22 -14 -41
-112 -35 -189 -45 -296 -45 -473 1 -353 84 -521 280 -565 191 -43 322 153 389
580 32 211 79 370 147 501 39 77 105 159 126 159 20 0 13 -76 -18 -198 -62
-249 -76 -429 -45 -607 36 -205 144 -360 286 -410 232 -82 463 4 616 231 79
116 160 309 193 457 8 32 16 54 20 50 4 -4 15 -39 25 -76 31 -118 124 -293
200 -375 178 -192 437 -210 589 -41 136 152 198 477 138 724 -12 50 -66 219
-119 377 -54 158 -95 290 -91 293 9 9 47 -12 81 -43 27 -25 27 -25 27 -4 0 12
4 22 9 22 10 0 -97 206 -153 295 -38 60 -103 135 -118 135 -4 0 -11 -8 -16
-17z"/>
<path d="M5387 5648 c-4 -61 -2 -74 12 -82 9 -5 46 -39 82 -75 90 -91 113
-149 112 -288 0 -57 1 -103 4 -103 10 0 34 75 42 135 21 149 -33 292 -154 412
-41 40 -79 73 -83 73 -5 0 -12 -33 -15 -72z"/>
<path d="M288 5658 c-45 -47 -130 -213 -167 -324 -24 -71 -31 -110 -31 -169 0
-76 0 -78 39 -116 33 -34 45 -39 82 -39 24 1 55 7 68 14 35 19 79 92 102 168
29 95 13 134 -26 61 -38 -70 -128 -77 -155 -12 -24 58 10 197 89 359 23 46 39
85 36 88 -3 3 -19 -11 -37 -30z"/>
<path d="M8928 5660 c-32 -24 -73 -117 -89 -198 l-12 -62 -36 62 c-49 84 -125
158 -162 158 -27 0 -29 -3 -29 -40 0 -46 19 -99 44 -119 9 -7 31 -16 49 -20
27 -5 37 -15 65 -71 22 -45 34 -85 39 -132 6 -65 6 -66 27 -53 19 12 24 30 34
120 14 129 35 205 67 239 32 34 60 33 82 -4 9 -16 21 -30 24 -30 4 0 17 14 29
30 28 39 21 71 -23 103 -47 35 -80 41 -109 17z"/>
<path d="M4363 5640 c-44 -27 -66 -64 -66 -114 0 -52 20 -84 78 -120 25 -16
45 -31 45 -33 0 -2 -11 -30 -24 -62 -52 -130 -197 -297 -378 -438 -55 -43 -94
-79 -87 -82 20 -6 252 115 301 159 66 57 156 180 209 283 24 48 47 87 50 87
13 0 39 -81 39 -118 -1 -56 -16 -113 -65 -237 -35 -89 -45 -126 -45 -172 0
-97 46 -156 101 -130 33 17 73 101 73 156 1 39 -2 46 -20 49 -16 2 -23 -4 -27
-25 -8 -37 -31 -68 -45 -59 -20 12 -13 88 14 151 51 119 94 251 94 291 0 55
-16 99 -57 157 -29 41 -34 58 -38 117 -8 133 -70 191 -152 140z m57 -89 c5
-11 10 -27 10 -36 0 -13 -6 -12 -42 6 -39 20 -41 22 -23 35 26 19 42 17 55 -5z"/>
<path d="M3580 5478 c0 -13 -3 -45 -6 -73 -5 -50 -5 -50 36 -75 118 -70 193
-236 172 -374 -11 -66 0 -80 24 -34 12 22 19 65 22 133 5 115 -14 189 -72 279
-35 53 -147 166 -165 166 -6 0 -11 -10 -11 -22z"/>
<path d="M2372 5386 c-17 -25 -22 -46 -22 -99 0 -72 -19 -107 -58 -107 -39 0
-56 103 -27 160 9 17 13 30 10 30 -20 0 -49 -27 -61 -57 -21 -48 -20 -158 1
-189 35 -54 95 -55 146 -5 l27 28 26 -26 c32 -32 87 -34 117 -4 34 34 37 132
6 213 -30 78 -56 88 -71 28 -7 -29 -5 -48 13 -94 12 -31 19 -59 17 -62 -3 -2
-16 -2 -30 2 -21 5 -29 17 -42 63 -9 32 -18 77 -19 100 -1 23 -3 45 -6 47 -2
3 -14 -10 -27 -28z"/>
<path d="M9140 5231 c-319 -128 -576 -252 -632 -304 -20 -18 -28 -38 -33 -81
-8 -65 0 -80 60 -107 63 -29 75 -26 75 21 0 38 -3 41 -40 56 -22 9 -40 20 -40
25 0 28 150 105 514 261 116 49 219 98 229 107 23 22 40 81 24 81 -7 0 -77
-27 -157 -59z"/>
<path d="M5581 5051 c-30 -38 -31 -41 -31 -149 l0 -110 -31 -26 c-44 -37 -84
-35 -105 6 -27 52 -29 134 -6 201 22 61 20 66 -16 41 -45 -31 -66 -91 -70
-199 -3 -89 -1 -105 20 -144 32 -62 84 -88 140 -72 24 7 57 30 82 55 l42 43
42 -38 c51 -45 85 -54 137 -37 54 18 76 65 83 176 4 79 2 92 -21 138 -14 27
-30 68 -36 91 -8 27 -19 44 -32 48 -26 9 -27 8 -45 -57 l-16 -55 37 -93 c42
-106 39 -122 -22 -99 -22 9 -43 26 -51 41 -23 48 -54 192 -50 235 4 54 -10 56
-51 4z"/>
<path d="M2346 4898 c-9 -36 -7 -128 3 -128 6 0 37 -25 70 -56 41 -38 71 -77
93 -122 31 -63 33 -73 33 -175 0 -102 1 -107 17 -87 21 25 38 105 38 173 0 67
-23 157 -58 221 -26 50 -160 196 -180 196 -5 0 -12 -10 -16 -22z"/>
<path d="M8983 4448 c-49 -56 -53 -68 -53 -179 l0 -107 -31 -26 c-42 -36 -75
-34 -99 6 -31 51 -35 123 -12 193 11 33 19 62 17 64 -11 10 -55 -33 -75 -74
-27 -56 -38 -181 -20 -244 17 -63 67 -111 115 -111 52 0 103 27 134 71 l27 37
46 -44 c39 -37 53 -44 87 -44 86 0 115 36 131 168 10 77 9 81 -20 148 -17 38
-35 85 -39 104 -5 28 -12 36 -32 38 -24 3 -27 -2 -42 -55 l-16 -58 34 -85 c19
-47 35 -91 35 -97 0 -21 -57 -15 -85 10 -32 28 -79 199 -72 265 5 48 -1 52
-30 20z"/>
<path d="M11866 4428 c-3 -18 -7 -60 -10 -93 l-5 -60 50 -34 c68 -47 152 -140
183 -203 45 -93 59 -171 52 -282 -6 -90 -6 -98 9 -86 52 43 67 289 26 410 -12
36 -39 94 -58 129 -38 68 -161 204 -212 234 l-30 18 -5 -33z"/>
<path d="M7389 3950 c-44 -23 -157 -144 -165 -177 -10 -37 3 -39 39 -6 51 48
74 57 102 39 34 -22 39 -49 16 -94 -23 -45 -117 -135 -200 -191 -31 -21 -63
-47 -71 -56 -14 -16 -12 -17 20 -10 109 23 288 173 344 288 49 98 43 187 -13
217 -26 13 -29 13 -72 -10z"/>
<path d="M9213 3597 c-204 -128 -388 -243 -409 -257 -31 -20 -42 -38 -61 -94
-13 -38 -23 -70 -21 -71 3 -3 758 464 800 495 15 11 36 37 46 58 21 41 35 102
24 101 -4 0 -174 -105 -379 -232z"/>
<path d="M5111 3673 c-38 -141 -62 -260 -58 -283 3 -14 40 -102 83 -196 100
-219 134 -319 255 -729 55 -187 102 -345 104 -352 6 -17 -292 -331 -462 -486
-249 -229 -449 -372 -580 -418 -89 -30 -229 -52 -291 -44 -56 7 -117 28 -126
44 -3 5 45 52 107 104 364 305 607 568 692 752 47 100 59 169 59 335 -1 114
-6 167 -23 245 -28 122 -79 281 -115 354 -14 30 -26 57 -26 60 0 3 21 -18 46
-47 26 -29 48 -51 51 -48 9 9 -21 133 -44 180 -77 154 -248 394 -268 375 -3
-4 -26 -83 -51 -177 l-44 -170 165 -424 c91 -233 165 -434 165 -447 0 -12 -5
-32 -12 -44 -20 -39 -194 -229 -280 -308 -174 -158 -474 -396 -485 -385 -20
20 56 265 127 411 68 139 82 175 67 175 -7 -1 -26 -20 -43 -43 -96 -132 -174
-307 -226 -507 l-31 -121 -122 -84 c-294 -203 -755 -485 -1177 -720 -212 -118
-270 -155 -243 -155 3 0 110 23 238 50 518 113 843 209 975 289 43 26 134 89
203 139 117 85 124 89 133 69 61 -148 92 -192 165 -235 43 -25 54 -27 151 -26
92 1 116 5 195 33 159 57 310 149 511 308 132 105 500 471 537 533 14 25 37
90 50 145 14 55 28 114 33 130 5 23 10 4 20 -85 75 -646 358 -1063 784 -1154
84 -18 304 -46 361 -46 l37 0 7 72 c3 40 5 120 3 178 l-3 105 -165 48 c-163
47 -345 124 -376 158 -24 27 -13 51 41 87 224 150 745 329 1543 533 130 33
238 61 239 63 7 7 133 278 133 286 0 6 -364 10 -1002 10 l-1003 1 50 45 c112
102 303 212 550 317 208 89 186 87 218 22 15 -30 30 -73 33 -95 6 -38 35 -63
52 -45 4 4 7 60 6 126 l0 119 50 15 c28 8 112 29 187 47 l137 32 45 145 46
146 -37 38 c-57 60 -219 187 -303 240 -91 56 -187 97 -230 97 -77 0 -152 -72
-218 -210 -33 -68 -36 -83 -36 -161 0 -82 2 -88 39 -148 21 -34 36 -64 35 -66
-2 -1 -74 -37 -159 -80 -318 -158 -589 -336 -746 -492 l-79 -78 -29 -145 c-16
-80 -31 -155 -33 -167 l-5 -22 618 5 619 5 -115 -39 c-260 -88 -498 -198 -583
-267 -106 -86 -177 -211 -177 -311 0 -82 -32 -68 -147 67 -96 111 -135 177
-172 295 -37 111 -58 257 -70 479 -18 309 -92 643 -208 940 -85 215 -255 556
-312 623 -27 31 -39 28 -50 -15z m1914 -523 c57 -28 153 -97 155 -111 0 -7
-241 -92 -244 -87 -10 17 -69 91 -103 130 -51 57 -47 79 14 96 53 15 108 6
178 -28z"/>
<path d="M565 3637 c-16 -25 -14 -80 5 -117 5 -9 2 -26 -6 -40 -16 -29 -18
-143 -4 -171 7 -12 21 -19 39 -19 15 0 31 -3 34 -6 20 -20 -161 -188 -318
-296 -112 -78 -281 -178 -300 -178 -8 0 -15 -4 -15 -10 0 -29 176 16 297 75
169 83 332 221 388 327 l29 56 57 -29 c93 -49 139 -18 140 95 1 63 -30 135
-96 217 -61 77 -114 111 -180 117 -48 4 -55 2 -70 -21z m110 -191 c23 -34 16
-82 -10 -78 -59 8 -79 40 -53 82 17 27 44 25 63 -4z m123 -37 c68 -68 68 -84
2 -76 -28 3 -55 9 -60 12 -12 7 -14 115 -2 115 4 0 31 -23 60 -51z"/>
<path d="M5976 3546 l-36 -43 0 -110 c0 -101 -2 -111 -22 -130 -43 -39 -67
-46 -93 -29 -46 31 -59 170 -23 244 15 30 15 32 -1 32 -24 0 -46 -26 -72 -84
-25 -57 -30 -188 -10 -248 14 -41 59 -85 97 -94 50 -13 148 45 166 98 3 9 21
-2 51 -29 55 -51 100 -62 150 -38 45 21 66 71 73 174 6 70 4 81 -25 141 -17
36 -34 80 -37 98 -5 27 -11 32 -33 32 -23 0 -28 -6 -39 -45 -17 -63 -16 -72
18 -150 33 -77 38 -115 16 -115 -29 0 -65 20 -80 43 -24 36 -57 175 -57 240 0
31 -2 57 -4 57 -2 0 -20 -20 -39 -44z"/>
<path d="M681 2863 l-413 -258 -19 -50 c-30 -78 -31 -85 -18 -85 6 0 122 69
258 153 135 84 317 197 403 250 139 86 159 102 176 140 17 37 36 107 29 107
-2 0 -189 -116 -416 -257z"/>
<path d="M7853 2975 c-70 -30 -85 -126 -27 -186 35 -37 29 -53 -61 -147 -74
-79 -161 -139 -267 -185 -40 -18 -75 -37 -78 -42 -8 -15 32 -17 97 -6 133 25
281 132 374 272 l17 24 32 -23 c17 -13 33 -22 35 -20 2 1 5 24 6 51 2 33 -2
52 -13 63 -13 13 -14 23 -6 51 11 40 2 108 -18 141 -16 25 -44 28 -91 7z m47
-100 c0 -14 -3 -25 -8 -25 -11 0 -32 37 -25 44 15 15 33 4 33 -19z"/>
<path d="M4089 2669 c-29 -31 -79 -166 -79 -215 0 -36 -12 -29 -40 22 -30 58
-103 140 -142 160 -52 27 -70 -7 -46 -87 14 -49 41 -78 79 -86 58 -11 109
-113 109 -216 0 -41 3 -48 16 -43 9 3 19 6 24 6 5 0 11 21 14 48 26 210 40
269 78 309 29 31 53 29 80 -7 l22 -30 23 22 c43 40 26 96 -37 128 -53 27 -67
25 -101 -11z"/>
<path d="M326 2267 c-35 -38 -119 -193 -155 -287 -12 -30 -28 -88 -36 -128
-31 -147 17 -232 131 -232 54 0 114 64 143 153 33 100 30 174 -4 107 -27 -51
-51 -70 -93 -70 -56 0 -74 18 -80 78 -6 64 30 184 94 314 24 50 42 93 39 96
-3 3 -20 -11 -39 -31z"/>
<path d="M7988 1408 c-74 -99 -108 -195 -108 -301 0 -67 3 -77 26 -101 37 -36
69 -34 94 6 21 35 37 115 25 126 -4 4 -10 2 -12 -4 -29 -81 -91 -25 -80 72 2
26 24 84 48 133 55 108 52 101 41 101 -5 0 -21 -15 -34 -32z"/>
<path d="M5401 1417 c-36 -18 -62 -59 -68 -108 -4 -27 -17 -58 -35 -80 -39
-49 -46 -81 -37 -176 7 -70 81 -399 93 -410 2 -3 10 13 16 33 17 49 7 193 -20
299 -11 44 -20 101 -20 127 0 42 3 49 30 63 16 8 44 15 62 15 18 0 42 3 53 6
28 8 85 88 85 119 0 90 -85 150 -159 112z m23 -105 c3 -5 -10 -14 -29 -20 -39
-11 -47 -1 -12 16 28 13 35 14 41 4z"/>
<path d="M7280 1361 c-74 -15 -110 -52 -110 -113 0 -44 5 -46 36 -17 15 14 41
22 83 26 34 3 61 2 61 -3 0 -5 -19 -21 -43 -36 -57 -37 -142 -123 -163 -166
-30 -63 -3 -136 66 -176 24 -14 53 -20 99 -20 97 -1 179 42 296 155 49 48 87
90 84 94 -4 3 -35 -12 -69 -34 -91 -59 -161 -83 -260 -88 -92 -4 -132 7 -138
41 -5 26 47 76 163 159 113 79 125 92 125 123 0 17 -10 26 -42 38 -53 18 -141
27 -188 17z"/>
<path d="M9664 1195 l-10 -74 49 -32 c62 -40 120 -113 147 -186 18 -49 21 -74
18 -155 -3 -91 -3 -96 14 -82 33 31 49 188 28 280 -5 23 -19 63 -31 90 -12 27
-21 55 -20 62 1 6 -5 12 -14 12 -8 0 -15 4 -15 8 0 10 -106 115 -136 136 -20
15 -21 13 -30 -59z"/>
<path d="M11200 1049 c-168 -81 -375 -183 -460 -226 l-155 -78 -27 -55 c-30
-61 -32 -70 -19 -70 9 0 291 134 751 358 161 78 166 81 192 129 30 56 43 93
31 92 -4 0 -145 -68 -313 -150z"/>
</g>
</svg>
